<svg id="SvgjsSvg1000" xmlns="http://www.w3.org/2000/svg" version="1.1" xmlns:xlink="http://www.w3.org/1999/xlink" xmlns:svgjs="http://svgjs.com/svgjs" width="11" height="15"><defs id="SvgjsDefs1001"></defs><path id="SvgjsPath1007" d="M673.166 777.167L673.166 774.75C673.166 772.683 671.522 771.001 669.5 771.001C667.478 771.001 665.833 772.683 665.833 774.75L665.833 777.167L667.6669999999999 777.167L667.6669999999999 774.75C667.6669999999999 773.716 668.4889999999999 772.875 669.4999999999999 772.875C670.5109999999999 772.875 671.3329999999999 773.716 671.3329999999999 774.75L671.3329999999999 777.167ZM664 779.437L664 784.125C664 785.16 664.821 786 665.833 786L673.1669999999999 786C674.1789999999999 786 674.9999999999999 785.16 674.9999999999999 784.125L674.9999999999999 779.437C674.9999999999999 778.402 674.1789999999999 777.563 673.1659999999999 777.563L665.833 777.563C664.821 777.563 664 778.402 664 779.437ZM669.5 780.375C670.006 780.375 670.417 780.794 670.417 781.312C670.417 781.6560000000001 670.227 781.943 669.9580000000001 782.106L669.9580000000001 783.656C669.9580000000001 783.915 669.753 784.125 669.5000000000001 784.125C669.2460000000001 784.125 669.0420000000001 783.915 669.0420000000001 783.656L669.0420000000001 782.106C668.7730000000001 781.943 668.5830000000002 781.656 668.5830000000002 781.312C668.5830000000002 780.794 668.9940000000001 780.375 669.5000000000002 780.375Z " fill="#b2b2b2" transform="matrix(1,0,0,1,-664,-771)"></path></svg>