<svg id="SvgjsSvg1000" xmlns="http://www.w3.org/2000/svg" version="1.1" xmlns:xlink="http://www.w3.org/1999/xlink" xmlns:svgjs="http://svgjs.com/svgjs" width="44" height="46"><defs id="SvgjsDefs1001"><linearGradient id="SvgjsLinearGradient1008" gradientUnits="userSpaceOnUse" x1="501.989897959296" y1="10580.70516321327" x2="527.0021020407041" y2="10576.294836786732"><stop id="SvgjsStop1009" stop-opacity=".4" stop-color="#000001" offset="0"></stop><stop id="SvgjsStop1010" stop-opacity="0" stop-color="#4e9fd1" offset="1"></stop></linearGradient><linearGradient id="SvgjsLinearGradient1012" gradientUnits="userSpaceOnUse" x1="502.4994999999999" y1="10587.712907737206" x2="502.4994999999999" y2="10542"><stop id="SvgjsStop1013" stop-opacity="1" stop-color="#07c484" offset="0"></stop><stop id="SvgjsStop1014" stop-opacity="1" stop-color="#22f9b4" offset="1"></stop></linearGradient><linearGradient id="SvgjsLinearGradient1016" gradientUnits="userSpaceOnUse" x1="502.4994999999999" y1="10587.712907737206" x2="502.4994999999999" y2="10542"><stop id="SvgjsStop1017" stop-opacity="1" stop-color="#07c185" offset="0"></stop><stop id="SvgjsStop1018" stop-opacity="1" stop-color="#00ffad" offset="1"></stop></linearGradient><filter id="SvgjsFilter1021" width="200%" height="200%" x="-50%" y="-50%"><feGaussianBlur id="SvgjsFeGaussianBlur1022" stdDeviation="0 " result="SvgjsFeGaussianBlur1022Out" in="SourceGraphic"></feGaussianBlur></filter><mask id="SvgjsMask1023"><path id="SvgjsPath1019" d="M502.5 10542C492.285 10542 484.004 10550.3 484.004 10560.6C484.004 10569.800000000001 495.528 10582.1 500.384 10586.800000000001C501.57300000000004 10588.000000000002 503.454 10588.000000000002 504.66700000000003 10586.900000000001C509.552 10582.300000000001 520.995 10570.500000000002 520.995 10560.600000000002C520.994 10550.300000000003 512.714 10542.000000000002 502.5 10542.000000000002ZM502.5 10566.6C498.276 10566.6 494.855 10563.1 494.855 10558.9C494.855 10554.699999999999 498.276 10551.199999999999 502.5 10551.199999999999C506.722 10551.199999999999 510.143 10554.699999999999 510.143 10558.9C510.143 10563.1 506.722 10566.6 502.5 10566.6Z " fill="#ffffff"></path></mask><clipPath id="SvgjsClipPath1026"><path id="SvgjsPath1025" d="M502.5 10542C492.285 10542 484.004 10550.3 484.004 10560.6C484.004 10569.800000000001 495.528 10582.1 500.384 10586.800000000001C501.57300000000004 10588.000000000002 503.454 10588.000000000002 504.66700000000003 10586.900000000001C509.552 10582.300000000001 520.995 10570.500000000002 520.995 10560.600000000002C520.994 10550.300000000003 512.714 10542.000000000002 502.5 10542.000000000002ZM502.5 10566.6C498.276 10566.6 494.855 10563.1 494.855 10558.9C494.855 10554.699999999999 498.276 10551.199999999999 502.5 10551.199999999999C506.722 10551.199999999999 510.143 10554.699999999999 510.143 10558.9C510.143 10563.1 506.722 10566.6 502.5 10566.6Z " fill="#ffffff"></path></clipPath></defs><path id="SvgjsPath1007" d="M513.743 10572.7C520.6370000000001 10568.5 526.5630000000001 10567.800000000001 526.979 10571C527.3950000000001 10574.2 522.143 10580.2 515.249 10584.3C508.355 10588.5 502.42900000000003 10589.199999999999 502.01300000000003 10586C501.59700000000004 10582.8 506.84900000000005 10576.8 513.743 10572.7Z " fill="url(#SvgjsLinearGradient1008)" transform="matrix(1,0,0,1,-484,-10542)"></path><path id="SvgjsPath1011" d="M502.5 10542C492.285 10542 484.004 10550.3 484.004 10560.6C484.004 10569.800000000001 495.528 10582.1 500.384 10586.800000000001C501.57300000000004 10588.000000000002 503.454 10588.000000000002 504.66700000000003 10586.900000000001C509.552 10582.300000000001 520.995 10570.500000000002 520.995 10560.600000000002C520.994 10550.300000000003 512.714 10542.000000000002 502.5 10542.000000000002ZM502.5 10566.6C498.276 10566.6 494.855 10563.1 494.855 10558.9C494.855 10554.699999999999 498.276 10551.199999999999 502.5 10551.199999999999C506.722 10551.199999999999 510.143 10554.699999999999 510.143 10558.9C510.143 10563.1 506.722 10566.6 502.5 10566.6Z " fill="url(#SvgjsLinearGradient1012)" transform="matrix(1,0,0,1,-484,-10542)"></path><path id="SvgjsPath1015" d="M502.5 10542C492.285 10542 484.004 10550.3 484.004 10560.6C484.004 10569.800000000001 495.528 10582.1 500.384 10586.800000000001C501.57300000000004 10588.000000000002 503.454 10588.000000000002 504.66700000000003 10586.900000000001C509.552 10582.300000000001 520.995 10570.500000000002 520.995 10560.600000000002C520.994 10550.300000000003 512.714 10542.000000000002 502.5 10542.000000000002ZM502.5 10566.6C498.276 10566.6 494.855 10563.1 494.855 10558.9C494.855 10554.699999999999 498.276 10551.199999999999 502.5 10551.199999999999C506.722 10551.199999999999 510.143 10554.699999999999 510.143 10558.9C510.143 10563.1 506.722 10566.6 502.5 10566.6Z " fill="url(#SvgjsLinearGradient1016)" transform="matrix(1,0,0,1,-484,-10542)"></path><path id="SvgjsPath1020" d="M484 10590L484 10540L521 10540L521 10590ZM484.004 10562.6C484.004 10571.800000000001 495.528 10584.1 500.384 10588.800000000001C501.57300000000004 10590.000000000002 503.454 10590.000000000002 504.66700000000003 10588.900000000001C509.552 10584.300000000001 520.995 10572.500000000002 520.995 10562.600000000002C520.994 10552.300000000003 512.714 10544.000000000002 502.5 10544.000000000002C492.285 10544.000000000002 484.004 10552.300000000001 484.004 10562.600000000002ZM502.5 10568.6C498.276 10568.6 494.855 10565.1 494.855 10560.9C494.855 10556.699999999999 498.276 10553.199999999999 502.5 10553.199999999999C506.722 10553.199999999999 510.143 10556.699999999999 510.143 10560.9C510.143 10565.1 506.722 10568.6 502.5 10568.6Z " fill="#ffffff" fill-opacity="1" stroke-opacity="1" stroke-width="0" stroke="#ffffff" filter="url(#SvgjsFilter1021)" mask="url(&quot;#SvgjsMask1023&quot;)" transform="matrix(1,0,0,1,-484,-10542)"></path><path id="SvgjsPath1024" d="M502.5 10542C492.285 10542 484.004 10550.3 484.004 10560.6C484.004 10569.800000000001 495.528 10582.1 500.384 10586.800000000001C501.57300000000004 10588.000000000002 503.454 10588.000000000002 504.66700000000003 10586.900000000001C509.552 10582.300000000001 520.995 10570.500000000002 520.995 10560.600000000002C520.994 10550.300000000003 512.714 10542.000000000002 502.5 10542.000000000002ZM502.5 10566.6C498.276 10566.6 494.855 10563.1 494.855 10558.9C494.855 10554.699999999999 498.276 10551.199999999999 502.5 10551.199999999999C506.722 10551.199999999999 510.143 10554.699999999999 510.143 10558.9C510.143 10563.1 506.722 10566.6 502.5 10566.6Z " fill-opacity="0" fill="#ffffff" stroke-dasharray="0" stroke-linejoin="round" stroke-linecap="round" stroke-opacity="0.67" stroke="#00ffad" stroke-miterlimit="50" stroke-width="2" clip-path="url(&quot;#SvgjsClipPath1026&quot;)" transform="matrix(1,0,0,1,-484,-10542)"></path></svg>