<svg id="SvgjsSvg1014" xmlns="http://www.w3.org/2000/svg" version="1.1" xmlns:xlink="http://www.w3.org/1999/xlink" xmlns:svgjs="http://svgjs.com/svgjs" width="72" height="61"><defs id="SvgjsDefs1015"></defs><path id="SvgjsPath1016" d="M601.25 487.699L595.884 482.349C595.65 482.115 595.333 481.985 595.001 481.985C594.67 481.985 594.353 482.115 594.1179999999999 482.349L591.433 485.027L589.163 482.762C590.168 481.258 590.0070000000001 479.204 588.678 477.879L573.167 462.41400000000004C571.605 460.85800000000006 569.5300000000001 460.00100000000003 567.322 460.00100000000003C565.114 460.00100000000003 563.038 460.85800000000006 561.477 462.41400000000004C560.9889999999999 462.90100000000007 560.9889999999999 463.68800000000005 561.477 464.17500000000007C564.577 467.26500000000004 564.577 472.2940000000001 561.477 475.3860000000001C560.9889999999999 475.87200000000007 560.9889999999999 476.6600000000001 561.477 477.1470000000001L566.592 482.2450000000001L540.169 508.5890000000001C539.994 508.7640000000001 539.875 508.98700000000014 539.827 509.2290000000001L537.812 519.4120000000001C537.731 519.8200000000002 537.86 520.2400000000001 538.154 520.5340000000001C538.391 520.7690000000001 538.709 520.8980000000001 539.037 520.8980000000001C539.118 520.8980000000001 539.1990000000001 520.8910000000002 539.279 520.8750000000001L549.493 518.8660000000001C549.7360000000001 518.8190000000001 549.9590000000001 518.6990000000001 550.134 518.5250000000001L576.557 492.1820000000001L577.307 492.9290000000001C577.551 493.1730000000001 577.871 493.2940000000001 578.19 493.2940000000001C578.5100000000001 493.2940000000001 578.83 493.1730000000001 579.0740000000001 492.9290000000001L580.3960000000001 491.6110000000001L582.613 493.8200000000001L579.9280000000001 496.4960000000001C579.6940000000001 496.7300000000001 579.5620000000001 497.0470000000001 579.5620000000001 497.37700000000007C579.5620000000001 497.7080000000001 579.6940000000001 498.02400000000006 579.9280000000001 498.25800000000004L585.2940000000001 503.607C585.5280000000001 503.84200000000004 585.8460000000001 503.97200000000004 586.1770000000001 503.97200000000004C586.5090000000001 503.97200000000004 586.8260000000001 503.84200000000004 587.0610000000001 503.607L601.2500000000001 489.46000000000004C601.7380000000002 488.97400000000005 601.7380000000002 488.18500000000006 601.2500000000001 487.699ZM549.626 515.509C549.091 514.522 548.454 513.596 547.727 512.75L572.457 488.094L574.79 490.42ZM568.358 484.007L570.6909999999999 486.334L545.9619999999999 510.988C545.1109999999999 510.264 544.1839999999999 509.628 543.1929999999999 509.096ZM578.191 490.288L567.932 480.06100000000004L576.653 471.36600000000004C576.914 471.10300000000007 577.2620000000001 470.96000000000004 577.633 470.96000000000004C578.0020000000001 470.96000000000004 578.35 471.105 578.6120000000001 471.365L586.912 479.64C587.452 480.179 587.452 481.056 586.912 481.59299999999996ZM586.177 500.966L582.577 497.377L585.26 494.70300000000003C585.261 494.70200000000006 585.261 494.70200000000006 585.262 494.70000000000005L591.039 488.94100000000003L595.001 484.99L598.601 488.58ZM566.166 478.3L564.0740000000001 476.214C567.0160000000001 472.483 567.0400000000001 467.194 564.1460000000001 463.438C565.08 462.82099999999997 566.176 462.491 567.3220000000001 462.491C568.8620000000001 462.491 570.3110000000001 463.08799999999997 571.4000000000001 464.175L576.046 468.807C575.62 468.998 575.2270000000001 469.26500000000004 574.8860000000001 469.605ZM582.163 489.849L587.451 484.577L589.667 486.787L588.95 487.50199999999995L584.379 492.05999999999995ZM545.326 517.147C544.989 516.302 544.485 515.5300000000001 543.8290000000001 514.8760000000001C543.1730000000001 514.2220000000001 542.398 513.7200000000001 541.551 513.383L541.969 511.26900000000006C544.2900000000001 512.509 546.2030000000001 514.416 547.447 516.73ZM603.486 503.659L600.777 500.959C600.289 500.473 599.499 500.473 599.0110000000001 500.959C598.523 501.444 598.523 502.234 599.0110000000001 502.719L601.719 505.42C601.9630000000001 505.663 602.283 505.784 602.6020000000001 505.784C602.9220000000001 505.784 603.2420000000001 505.664 603.4860000000001 505.42C603.9730000000001 504.933 603.9730000000001 504.146 603.4860000000001 503.659ZM592.477 503.658C591.7869999999999 503.658 591.228 504.21500000000003 591.228 504.903L591.228 508.721C591.228 509.409 591.7869999999999 509.966 592.477 509.966C593.1659999999999 509.966 593.725 509.409 593.725 508.721L593.725 504.903C593.725 504.21500000000003 593.166 503.658 592.477 503.658ZM540.623 518.072L541.0550000000001 515.891C541.422 516.087 541.7620000000001 516.336 542.062 516.637C542.363 516.9359999999999 542.615 517.275 542.811 517.641ZM606.796 493.198L602.9670000000001 493.198C602.277 493.198 601.7180000000001 493.756 601.7180000000001 494.44399999999996C601.7180000000001 495.13199999999995 602.277 495.68899999999996 602.9670000000001 495.68899999999996L606.796 495.68899999999996C607.4860000000001 495.68899999999996 608.0450000000001 495.13199999999995 608.0450000000001 494.44399999999996C608.0450000000001 493.756 607.4860000000001 493.198 606.796 493.198Z " fill="#00ffad" transform="matrix(1,0,0,1,-537,-460)"></path></svg>