<svg id="SvgjsSvg1038" xmlns="http://www.w3.org/2000/svg" version="1.1" xmlns:xlink="http://www.w3.org/1999/xlink" xmlns:svgjs="http://svgjs.com/svgjs" width="17" height="21"><defs id="SvgjsDefs1039"></defs><path id="SvgjsPath1040" d="M1107.5 2151C1102.81 2151 1099 2154.78 1099 2159.42C1099 2159.94 1099.05 2160.48 1099.15 2161C1099.16 2161.03 1099.17 2161.12 1099.21 2161.28C1099.3400000000001 2161.8500000000004 1099.53 2162.4 1099.78 2162.94C1100.69 2165.07 1102.71 2168.35 1107.12 2171.87C1107.2299999999998 2171.95 1107.37 2172 1107.5 2172C1107.63 2172 1107.77 2171.95 1107.88 2171.87C1112.2900000000002 2168.35 1114.3100000000002 2165.0699999999997 1115.22 2162.94C1115.47 2162.4 1115.66 2161.85 1115.79 2161.28C1115.83 2161.1200000000003 1115.84 2161.03 1115.85 2161C1115.9499999999998 2160.48 1116 2159.94 1116 2159.42C1115.99 2154.78 1112.18 2151 1107.5 2151ZM1114.66 2160.79C1114.66 2160.8 1114.65 2160.81 1114.65 2160.82C1114.65 2160.84 1114.64 2160.9 1114.6100000000001 2161.01C1114.5000000000002 2161.51 1114.3400000000001 2161.9900000000002 1114.1200000000001 2162.4500000000003C1114.1200000000001 2162.4500000000003 1114.1200000000001 2162.4600000000005 1114.1100000000001 2162.4700000000003C1113.2800000000002 2164.42 1111.46 2167.3900000000003 1107.5000000000002 2170.6400000000003C1103.5300000000002 2167.3900000000003 1101.7100000000003 2164.4200000000005 1100.8800000000003 2162.4700000000003C1100.8800000000003 2162.46 1100.8800000000003 2162.4500000000003 1100.8700000000003 2162.4500000000003C1100.6600000000003 2161.9900000000002 1100.4900000000002 2161.51 1100.3800000000003 2161.01C1100.3500000000004 2160.9 1100.3400000000004 2160.84 1100.3400000000004 2160.82C1100.3400000000004 2160.81 1100.3300000000004 2160.8 1100.3300000000004 2160.78C1100.2400000000005 2160.3300000000004 1100.2000000000003 2159.8700000000003 1100.2000000000003 2159.4100000000003C1100.2000000000003 2155.4300000000003 1103.4700000000003 2152.1800000000003 1107.5000000000002 2152.1800000000003C1111.5200000000002 2152.1800000000003 1114.7900000000002 2155.4300000000003 1114.7900000000002 2159.4100000000003C1114.7900000000002 2159.88 1114.7500000000002 2160.34 1114.66 2160.7900000000004ZM1107.5 2154.16C1104.52 2154.16 1102.1 2156.56 1102.1 2159.5099999999998C1102.1 2162.45 1104.52 2164.85 1107.5 2164.85C1110.47 2164.85 1112.89 2162.45 1112.89 2159.5099999999998C1112.89 2156.56 1110.47 2154.16 1107.5 2154.16ZM1107.5 2163.66C1105.18 2163.66 1103.3 2161.7999999999997 1103.3 2159.5099999999998C1103.3 2157.22 1105.19 2155.35 1107.5 2155.35C1109.81 2155.35 1111.69 2157.22 1111.69 2159.5099999999998C1111.69 2161.7999999999997 1109.81 2163.66 1107.5 2163.66Z " fill="#48c7ef" transform="matrix(1,0,0,1,-1099,-2151)"></path></svg>