<svg id="SvgjsSvg1047" xmlns="http://www.w3.org/2000/svg" version="1.1" xmlns:xlink="http://www.w3.org/1999/xlink" xmlns:svgjs="http://svgjs.com/svgjs" width="31" height="31"><defs id="SvgjsDefs1048"></defs><path id="SvgjsPath1049" d="M625.731 2653.42L618.196 2645.88C620.217 2643.56 621.441 2640.53 621.441 2637.2200000000003C621.441 2629.92 615.508 2624.0000000000005 608.22 2624.0000000000005C600.926 2624.0000000000005 595 2629.9300000000003 595 2637.2200000000003C595 2644.5000000000005 600.933 2650.4300000000003 608.22 2650.4300000000003C611.534 2650.4300000000003 614.566 2649.2100000000005 616.89 2647.1900000000005L624.425 2654.7200000000007C624.603 2654.9000000000005 624.8439999999999 2655.000000000001 625.078 2655.000000000001C625.3109999999999 2655.000000000001 625.552 2654.9100000000008 625.731 2654.7200000000007C626.088 2654.370000000001 626.088 2653.770000000001 625.731 2653.4200000000005ZM596.849 2637.22C596.849 2630.95 601.951 2625.85 608.214 2625.85C614.484 2625.85 619.5780000000001 2630.95 619.5780000000001 2637.22C619.5780000000001 2643.48 614.484 2648.5899999999997 608.214 2648.5899999999997C601.951 2648.5899999999997 596.849 2643.49 596.849 2637.22Z " fill="#000000" transform="matrix(1,0,0,1,-595,-2624)"></path></svg>