<svg id="SvgjsSvg1056" xmlns="http://www.w3.org/2000/svg" version="1.1" xmlns:xlink="http://www.w3.org/1999/xlink" xmlns:svgjs="http://svgjs.com/svgjs" width="73" height="73"><defs id="SvgjsDefs1057"></defs><path id="SvgjsPath1058" d="M440.708 6459.84C440.5 6459.08 439.71200000000005 6458.63 438.95200000000006 6458.84C438.19100000000003 6459.05 437.7420000000001 6459.84 437.95000000000005 6460.6C438.74000000000007 6463.490000000001 439.141 6466.4800000000005 439.141 6469.5C439.141 6488.05 424.05 6503.14 405.5 6503.14C386.95 6503.14 371.859 6488.05 371.859 6469.5C371.859 6450.95 386.95 6435.86 405.5 6435.86C415.663 6435.86 425.249 6440.469999999999 431.613 6448.299999999999L429.418 6448.299999999999C428.629 6448.299999999999 427.98900000000003 6448.94 427.98900000000003 6449.73C427.98900000000003 6450.5199999999995 428.629 6451.16 429.418 6451.16L434.949 6451.16C435.73900000000003 6451.16 436.379 6450.5199999999995 436.379 6449.73L436.379 6444.2C436.379 6443.41 435.73900000000003 6442.7699999999995 434.949 6442.7699999999995C434.16 6442.7699999999995 433.52000000000004 6443.41 433.52000000000004 6444.2L433.52000000000004 6446.11C426.617 6437.849999999999 416.362 6433 405.50000000000006 6433C385.3740000000001 6433 369.00000000000006 6449.37 369.00000000000006 6469.5C369.00000000000006 6489.63 385.3740000000001 6506 405.50000000000006 6506C425.62600000000003 6506 442.00000000000006 6489.63 442.00000000000006 6469.5C442.00000000000006 6466.23 441.56500000000005 6462.98 440.7080000000001 6459.84ZM425.401 6473.22L421.434 6473.22L421.434 6454.54C421.434 6453.89 421.00500000000005 6453.33 420.38500000000005 6453.16C419.76400000000007 6452.99 419.107 6453.25 418.77700000000004 6453.8L406.76900000000006 6473.91C406.50500000000005 6474.349999999999 406.4990000000001 6474.9 406.75300000000004 6475.349999999999C407.00700000000006 6475.799999999999 407.482 6476.07 407.99600000000004 6476.07L418.57500000000005 6476.07L418.57500000000005 6484.46C418.57500000000005 6485.25 419.21500000000003 6485.89 420.004 6485.89C420.79400000000004 6485.89 421.434 6485.25 421.434 6484.46L421.434 6476.07L425.40000000000003 6476.07C426.19000000000005 6476.07 426.83000000000004 6475.44 426.83000000000004 6474.65C426.83000000000004 6473.86 426.19000000000005 6473.219999999999 425.40100000000007 6473.219999999999ZM402.468 6483.03L390.957 6483.03L398.189 6475.8C401.87 6472.12 403.898 6467.22 403.898 6462.02C403.898 6457.1 399.901 6453.110000000001 394.987 6453.110000000001C390.07300000000004 6453.110000000001 386.076 6457.1 386.076 6462.02C386.076 6462.81 386.716 6463.450000000001 387.50600000000003 6463.450000000001C388.295 6463.450000000001 388.935 6462.81 388.935 6462.02C388.935 6458.68 391.65 6455.97 394.987 6455.97C398.324 6455.97 401.03900000000004 6458.68 401.03900000000004 6462.02C401.03900000000004 6466.46 399.309 6470.64 396.16700000000003 6473.780000000001L386.495 6483.450000000001C386.086 6483.860000000001 385.963 6484.4800000000005 386.185 6485.010000000001C386.406 6485.540000000001 386.927 6485.890000000001 387.50600000000003 6485.890000000001L402.468 6485.890000000001C403.25800000000004 6485.890000000001 403.898 6485.250000000001 403.898 6484.460000000001C403.898 6483.670000000001 403.25800000000004 6483.030000000001 402.468 6483.030000000001ZM418.575 6473.22L410.515 6473.22L418.575 6459.72ZM435.757 6468.07L433.596 6468.07C432.806 6468.07 432.166 6468.71 432.166 6469.5C432.166 6470.29 432.806 6470.93 433.596 6470.93L435.757 6470.93C436.547 6470.93 437.187 6470.29 437.187 6469.5C437.187 6468.71 436.547 6468.07 435.757 6468.07ZM377.404 6468.07L375.243 6468.07C374.453 6468.07 373.813 6468.71 373.813 6469.5C373.813 6470.29 374.453 6470.93 375.243 6470.93L377.404 6470.93C378.193 6470.93 378.83299999999997 6470.29 378.83299999999997 6469.5C378.83299999999997 6468.71 378.193 6468.07 377.404 6468.07ZM405.5 6438.11C404.71 6438.11 404.07 6438.75 404.07 6439.54L404.07 6441.4C404.07 6442.19 404.71 6442.83 405.5 6442.83C406.29 6442.83 406.93 6442.19 406.93 6441.4L406.93 6439.54C406.93 6438.75 406.29 6438.11 405.5 6438.11ZM405.5 6496.17C404.71 6496.17 404.07 6496.81 404.07 6497.6L404.07 6499.46C404.07 6500.25 404.71 6500.89 405.5 6500.89C406.29 6500.89 406.93 6500.25 406.93 6499.46L406.93 6497.6C406.93 6496.81 406.29 6496.17 405.5 6496.17ZM388.92 6443.26C388.92 6444.05 389.56100000000004 6444.6900000000005 390.35 6444.6900000000005C391.14000000000004 6444.6900000000005 391.78000000000003 6444.05 391.78000000000003 6443.26C391.78000000000003 6442.47 391.14000000000004 6441.83 390.35 6441.83C389.56100000000004 6441.83 388.92 6442.47 388.92 6443.26ZM377.831 6454.35C377.831 6455.14 378.47200000000004 6455.780000000001 379.261 6455.780000000001C380.05100000000004 6455.780000000001 380.69100000000003 6455.14 380.69100000000003 6454.35C380.69100000000003 6453.56 380.05100000000004 6452.92 379.261 6452.92C378.47200000000004 6452.92 377.831 6453.56 377.831 6454.35ZM377.831 6484.65C377.831 6485.44 378.47200000000004 6486.08 379.261 6486.08C380.05100000000004 6486.08 380.69100000000003 6485.44 380.69100000000003 6484.65C380.69100000000003 6483.86 380.05100000000004 6483.219999999999 379.261 6483.219999999999C378.47200000000004 6483.219999999999 377.831 6483.86 377.831 6484.65ZM388.92 6495.74C388.92 6496.53 389.56100000000004 6497.17 390.35 6497.17C391.14000000000004 6497.17 391.78000000000003 6496.53 391.78000000000003 6495.74C391.78000000000003 6494.95 391.14000000000004 6494.3099999999995 390.35 6494.3099999999995C389.56100000000004 6494.3099999999995 388.92 6494.95 388.92 6495.74ZM430.308 6454.35C430.308 6455.14 430.948 6455.780000000001 431.73699999999997 6455.780000000001C432.527 6455.780000000001 433.167 6455.14 433.167 6454.35C433.167 6453.56 432.527 6452.92 431.73699999999997 6452.92C430.948 6452.92 430.308 6453.56 430.308 6454.35ZM419.218 6443.26C419.218 6444.05 419.858 6444.6900000000005 420.648 6444.6900000000005C421.437 6444.6900000000005 422.077 6444.05 422.077 6443.26C422.077 6442.47 421.437 6441.83 420.648 6441.83C419.858 6441.83 419.218 6442.47 419.218 6443.26ZM419.218 6495.74C419.218 6496.53 419.858 6497.17 420.648 6497.17C421.437 6497.17 422.077 6496.53 422.077 6495.74C422.077 6494.95 421.437 6494.3099999999995 420.648 6494.3099999999995C419.858 6494.3099999999995 419.218 6494.95 419.218 6495.74ZM430.308 6484.65C430.308 6485.44 430.948 6486.08 431.73699999999997 6486.08C432.527 6486.08 433.167 6485.44 433.167 6484.65C433.167 6483.86 432.527 6483.219999999999 431.73699999999997 6483.219999999999C430.948 6483.219999999999 430.308 6483.86 430.308 6484.65Z " fill="#55c9f8" transform="matrix(1,0,0,1,-369,-6433)"></path></svg>