<svg id="SvgjsSvg1059" xmlns="http://www.w3.org/2000/svg" version="1.1" xmlns:xlink="http://www.w3.org/1999/xlink" xmlns:svgjs="http://svgjs.com/svgjs" width="76" height="77"><defs id="SvgjsDefs1060"></defs><path id="SvgjsPath1061" d="M1115.19 6490.58L1111.8700000000001 6491.42L1106.99 6480.6L1105.47 6466.77L1107.73 6467.09C1107.8700000000001 6467.110000000001 1108.02 6467.12 1108.17 6467.12C1109.5 6467.12 1110.71 6466.2699999999995 1111.14 6464.96C1111.44 6464.07 1111.3300000000002 6463.1 1110.8400000000001 6462.3C1110.3500000000001 6461.5 1109.5300000000002 6460.97 1108.6100000000001 6460.83L1105.8000000000002 6460.43L1105.8000000000002 6435.18C1105.8000000000002 6431.77 1103.0400000000002 6429 1099.66 6429L1048.13 6429C1044.75 6429 1042 6431.77 1042 6435.18C1042 6438.17 1044.11 6440.66 1046.91 6441.240000000001L1046.91 6505.660000000001L1095.93 6505.660000000001L1096.03 6506.000000000001L1098.3899999999999 6505.320000000001L1096.28 6497.89L1096.97 6497.72L1112.9 6493.7L1113.5800000000002 6493.54L1115.67 6499.87L1118 6499.09ZM1093.23 6496.12L1095.23 6503.19L1049.3600000000001 6503.19L1049.3600000000001 6441.36L1098.43 6441.36L1098.43 6454.36L1094.96 6452.32C1092.91 6447.23 1087.95 6443.84 1082.49 6443.84C1079.23 6443.84 1076.23 6445.01 1073.9 6446.95C1071.5500000000002 6445 1068.5400000000002 6443.84 1065.3100000000002 6443.84C1057.8700000000001 6443.84 1051.8100000000002 6449.9400000000005 1051.8100000000002 6457.4400000000005C1051.8100000000002 6463.210000000001 1055.4 6468.14 1060.4500000000003 6470.110000000001C1060.4300000000003 6470.420000000001 1060.4000000000003 6470.7300000000005 1060.4000000000003 6471.040000000001C1060.4000000000003 6478.540000000001 1066.4600000000003 6484.640000000001 1073.9000000000003 6484.640000000001C1078.0000000000002 6484.640000000001 1081.8000000000004 6482.780000000002 1084.3500000000004 6479.6100000000015L1085.3700000000003 6480.630000000002L1093.7000000000003 6487.830000000002L1096.1900000000003 6495.370000000002ZM1069.04 6458.35C1064.98 6459.910000000001 1061.93 6463.35 1060.84 6467.6C1056.98 6465.870000000001 1054.27 6461.97 1054.27 6457.4400000000005C1054.27 6451.3 1059.22 6446.31 1065.31 6446.31C1067.87 6446.31 1070.25 6447.21 1072.1499999999999 6448.71C1070.1799999999998 6451.08 1068.9899999999998 6454.12 1068.9899999999998 6457.44C1068.9899999999998 6457.74 1069.0199999999998 6458.04 1069.0399999999997 6458.349999999999ZM1044.45 6435.18C1044.45 6433.14 1046.1000000000001 6431.47 1048.13 6431.47L1094.7900000000002 6431.47C1094.0100000000002 6432.51 1093.5300000000002 6433.780000000001 1093.5300000000002 6435.18C1093.5300000000002 6436.58 1094.0100000000002 6437.860000000001 1094.7900000000002 6438.89L1048.13 6438.89C1046.1000000000001 6438.89 1044.45 6437.2300000000005 1044.45 6435.18ZM1062.87 6470.8C1063.6599999999999 6470.95 1064.4699999999998 6471.04 1065.31 6471.04C1068.44 6471.04 1071.4299999999998 6469.94 1073.82 6467.98L1073.96 6469.139999999999L1082.6000000000001 6477.849999999999C1080.5100000000002 6480.5599999999995 1077.3300000000002 6482.169999999999 1073.9 6482.169999999999C1067.8100000000002 6482.169999999999 1062.8600000000001 6477.169999999999 1062.8600000000001 6471.039999999999C1062.8600000000001 6470.959999999999 1062.8700000000001 6470.879999999999 1062.8700000000001 6470.799999999999ZM1078.44 6455.65C1078.54 6455.24 1078.8300000000002 6454.92 1079.23 6454.78L1088.5 6451.38L1102.19 6459.43L1102.24 6459.92L1096.15 6459.04L1087.8100000000002 6457.84L1086.8100000000002 6456.08L1081.6200000000001 6456.95L1078.5200000000002 6456.5C1078.4000000000003 6456.24 1078.3700000000001 6455.95 1078.4400000000003 6455.65ZM1099.66 6431.47C1101.69 6431.47 1103.3400000000001 6433.14 1103.3400000000001 6435.18L1103.3400000000001 6457.240000000001L1100.89 6455.800000000001L1100.89 6438.890000000001L1099.66 6438.890000000001C1097.63 6438.890000000001 1095.98 6437.230000000001 1095.98 6435.180000000001C1095.98 6433.140000000001 1097.63 6431.470000000001 1099.66 6431.470000000001ZM1087.13 6461.63L1081.22 6460.78L1080.68 6459.679999999999C1080.6100000000001 6459.539999999999 1080.53 6459.409999999999 1080.45 6459.28L1086.27 6460.12L1102.36 6462.43L1103.29 6462.570000000001L1103.06 6463.920000000001L1099.26 6463.370000000001ZM1075.65 6448.72C1077.5300000000002 6447.21 1079.9 6446.31 1082.48 6446.31C1085.42 6446.31 1088.18 6447.52 1090.2 6449.52L1088.74 6448.660000000001L1078.39 6452.450000000001C1078.23 6452.510000000001 1078.0900000000001 6452.6 1077.94 6452.68C1077.4 6451.22 1076.6200000000001 6449.88 1075.65 6448.72ZM1072.15 6466.16C1070.22 6467.7 1067.8200000000002 6468.57 1065.3100000000002 6468.57C1064.5800000000002 6468.57 1063.8700000000001 6468.49 1063.1900000000003 6468.36C1064.0100000000002 6464.99 1066.3200000000004 6462.24 1069.4400000000003 6460.86C1069.9400000000003 6462.8099999999995 1070.8600000000004 6464.61 1072.1500000000003 6466.16ZM1075.98 6456.26L1072.03 6457.59C1071.84 6457.610000000001 1071.6499999999999 6457.63 1071.46 6457.67C1071.46 6457.59 1071.44 6457.52 1071.44 6457.4400000000005C1071.44 6454.8 1072.3700000000001 6452.370000000001 1073.9 6450.460000000001C1074.94 6451.760000000001 1075.7 6453.310000000001 1076.0700000000002 6455.020000000001C1076.0700000000002 6455.030000000002 1076.0600000000002 6455.040000000002 1076.0600000000002 6455.050000000001C1075.9600000000003 6455.450000000001 1075.9500000000003 6455.8600000000015 1075.9800000000002 6456.260000000001ZM1089.54 6465.89L1087.28 6468.17L1083.45 6465.28L1082.55 6463.469999999999L1088.6699999999998 6464.349999999999ZM1105.72 6462.92L1108.27 6463.28C1108.54 6463.32 1108.69 6463.5 1108.75 6463.599999999999C1108.81 6463.7 1108.9 6463.91 1108.82 6464.179999999999C1108.71 6464.49 1108.3899999999999 6464.679999999999 1108.07 6464.639999999999L1105.49 6464.2699999999995ZM1073.07 6462L1073.26 6463.54C1072.58 6462.5 1072.07 6461.34 1071.77 6460.12C1071.95 6460.09 1072.12 6460.07 1072.29 6460.04L1073.11 6460.87C1073.05 6461.24 1073.03 6461.62 1073.07 6462ZM1104.21 6493.35L1098.58 6494.77L1095.81 6486.400000000001L1087.03 6478.820000000001L1076.29 6467.990000000001L1075.51 6461.700000000001C1075.48 6461.490000000001 1075.5 6461.280000000001 1075.55 6461.080000000001L1075.61 6460.930000000001C1075.7299999999998 6460.620000000001 1075.9299999999998 6460.370000000001 1076.1799999999998 6460.190000000001C1076.82 6459.770000000001 1077.7499999999998 6459.9000000000015 1078.2599999999998 6460.460000000002C1078.3399999999997 6460.560000000002 1078.4199999999998 6460.670000000002 1078.4799999999998 6460.790000000002L1079.5999999999997 6463.040000000002L1081.5199999999998 6466.910000000002L1087.5099999999998 6471.430000000002L1092.5999999999997 6466.300000000002L1091.7499999999998 6464.790000000002L1102.9599999999998 6466.4000000000015L1104.5699999999997 6481.0700000000015L1109.4499999999998 6492.030000000002Z " fill="#55c9f8" transform="matrix(1,0,0,1,-1042,-6429)"></path></svg>