<svg id="SvgjsSvg1020" xmlns="http://www.w3.org/2000/svg" version="1.1" xmlns:xlink="http://www.w3.org/1999/xlink" xmlns:svgjs="http://svgjs.com/svgjs" width="25.356499999999983" height="31.230999999999995"><defs id="SvgjsDefs1021"><filter id="SvgjsFilter1023" width="200%" height="200%" x="-50%" y="-50%"><feGaussianBlur id="SvgjsFeGaussianBlur1024" stdDeviation="0 " result="SvgjsFeGaussianBlur1024Out" in="SourceGraphic"></feGaussianBlur></filter></defs><path id="SvgjsPath1022" d="M362.582 682.447C362.31 682.447 362.134 682.47 362.03 682.494L362.03 686.043C362.13399999999996 686.067 362.30199999999996 686.067 362.45399999999995 686.067C363.55699999999996 686.075 364.27599999999995 685.463 364.27599999999995 684.168C364.28399999999993 683.042 363.62799999999993 682.447 362.58199999999994 682.447ZM358.823 683.2270000000001C358.823 682.7280000000001 358.479 682.4300000000001 357.871 682.4300000000001C357.623 682.4300000000001 357.455 682.4540000000001 357.368 682.4780000000001L357.368 684.08C357.472 684.104 357.6 684.111 357.776 684.111C358.423 684.111 358.82300000000004 683.782 358.82300000000004 683.227ZM369.565 663.885L357.57099999999997 663.885C355.81899999999996 663.885 354.392 665.321 354.392 667.086L354.392 678.916L354.082 678.916C353.375 678.916 352.801 679.494 352.801 680.206L352.801 688.0260000000001C352.801 688.738 353.375 689.315 354.082 689.315L354.392 689.315L354.392 690.749C354.392 692.513 355.819 693.947 357.57099999999997 693.947L373.936 693.947C375.688 693.947 377.114 692.513 377.114 690.749L377.114 671.4590000000001ZM373.936 691.988L357.57099999999997 691.988C356.892 691.988 356.34 691.4330000000001 356.34 690.749L356.34 689.315L371.59599999999995 689.315C372.30299999999994 689.315 372.87699999999995 688.738 372.87699999999995 688.0260000000001L372.87699999999995 680.206C372.87699999999995 679.494 372.30299999999994 678.916 371.59599999999995 678.916L356.34 678.916L356.34 667.086C356.34 666.403 356.892 665.848 357.57099999999997 665.848L368.837 665.8349999999999L368.837 670.026C368.837 671.251 369.824 672.246 371.041 672.246L375.12 672.235L375.166 690.749C375.166 691.433 374.615 691.988 373.936 691.988ZM360.807 686.9430000000001L360.807 681.6160000000001C361.255 681.546 361.838 681.5060000000001 362.454 681.5060000000001C363.47700000000003 681.5060000000001 364.14 681.69 364.66 682.0840000000001C365.21900000000005 682.503 365.57000000000005 683.1700000000001 365.57000000000005 684.128C365.57000000000005 685.166 365.19500000000005 685.8820000000001 364.67500000000007 686.3240000000001C364.10800000000006 686.7990000000001 363.24500000000006 687.0250000000001 362.19000000000005 687.0250000000001C361.55800000000005 687.0250000000001 361.11100000000005 686.9830000000001 360.8070000000001 686.9430000000001ZM356.161 681.6160000000001C356.537 681.5530000000001 357.064 681.5060000000001 357.807 681.5060000000001C358.559 681.5060000000001 359.094 681.6490000000001 359.454 681.94C359.798 682.2130000000001 360.029 682.6640000000001 360.029 683.195C360.029 683.725 359.854 684.176 359.534 684.4820000000001C359.118 684.8760000000001 358.503 685.0530000000001 357.784 685.0530000000001C357.623 685.0530000000001 357.48 685.0450000000001 357.368 685.0290000000001L357.368 686.9680000000001L356.161 686.9680000000001ZM369.53 683.7900000000001L369.53 684.787L367.59599999999995 684.787L367.59599999999995 686.9680000000001L366.37299999999993 686.9680000000001L366.37299999999993 681.546L369.66599999999994 681.546L369.66599999999994 682.551L367.59599999999995 682.551L367.59599999999995 683.7900000000001Z " fill="#ffffff" fill-opacity="0.4" filter="url(#SvgjsFilter1023)" transform="matrix(1,0,0,1,-352,-663)"></path><path id="SvgjsPath1025" d="M361.882 681.747C361.61 681.747 361.434 681.77 361.33 681.794L361.33 685.343C361.43399999999997 685.367 361.602 685.367 361.75399999999996 685.367C362.85699999999997 685.375 363.57599999999996 684.7629999999999 363.57599999999996 683.468C363.58399999999995 682.342 362.92799999999994 681.747 361.88199999999995 681.747ZM358.123 682.527C358.123 682.028 357.779 681.73 357.171 681.73C356.923 681.73 356.755 681.754 356.668 681.778L356.668 683.38C356.772 683.404 356.90000000000003 683.411 357.076 683.411C357.723 683.411 358.12300000000005 683.082 358.12300000000005 682.5269999999999ZM368.865 663.185L356.871 663.185C355.11899999999997 663.185 353.692 664.621 353.692 666.386L353.692 678.216L353.382 678.216C352.675 678.216 352.101 678.794 352.101 679.506L352.101 687.326C352.101 688.038 352.675 688.615 353.382 688.615L353.692 688.615L353.692 690.049C353.692 691.813 355.119 693.247 356.871 693.247L373.236 693.247C374.988 693.247 376.414 691.813 376.414 690.049L376.414 670.759ZM373.236 691.288L356.871 691.288C356.192 691.288 355.64 690.7330000000001 355.64 690.049L355.64 688.615L370.89599999999996 688.615C371.60299999999995 688.615 372.17699999999996 688.038 372.17699999999996 687.326L372.17699999999996 679.506C372.17699999999996 678.794 371.60299999999995 678.216 370.89599999999996 678.216L355.64 678.216L355.64 666.386C355.64 665.703 356.192 665.1479999999999 356.871 665.1479999999999L368.137 665.1349999999999L368.137 669.3259999999999C368.137 670.5509999999999 369.124 671.5459999999999 370.341 671.5459999999999L374.42 671.535L374.466 690.049C374.466 690.733 373.915 691.288 373.236 691.288ZM360.107 686.243L360.107 680.916C360.555 680.846 361.13800000000003 680.806 361.754 680.806C362.77700000000004 680.806 363.44 680.99 363.96000000000004 681.384C364.51900000000006 681.803 364.87000000000006 682.47 364.87000000000006 683.428C364.87000000000006 684.466 364.49500000000006 685.182 363.9750000000001 685.624C363.4080000000001 686.099 362.5450000000001 686.325 361.49000000000007 686.325C360.85800000000006 686.325 360.41100000000006 686.283 360.1070000000001 686.243ZM355.461 680.916C355.837 680.8530000000001 356.36400000000003 680.806 357.107 680.806C357.85900000000004 680.806 358.394 680.9490000000001 358.754 681.24C359.098 681.513 359.329 681.964 359.329 682.495C359.329 683.025 359.154 683.476 358.834 683.782C358.418 684.176 357.803 684.3530000000001 357.084 684.3530000000001C356.923 684.3530000000001 356.78000000000003 684.345 356.668 684.3290000000001L356.668 686.268L355.461 686.268ZM368.83 683.09L368.83 684.087L366.89599999999996 684.087L366.89599999999996 686.268L365.67299999999994 686.268L365.67299999999994 680.846L368.96599999999995 680.846L368.96599999999995 681.851L366.89599999999996 681.851L366.89599999999996 683.09Z " fill="#048159" transform="matrix(1,0,0,1,-352,-663)"></path></svg>