<svg id="SvgjsSvg1050" xmlns="http://www.w3.org/2000/svg" version="1.1" xmlns:xlink="http://www.w3.org/1999/xlink" xmlns:svgjs="http://svgjs.com/svgjs" width="25" height="25"><defs id="SvgjsDefs1051"></defs><path id="SvgjsPath1052" d="M1243.17 3099.84L1241.47 3101.55L1246.94 3107.02L1259.0900000000001 3094.86L1257.39 3093.1600000000003L1246.94 3103.61ZM1260.31 3102.15C1260.31 3108.84 1254.84 3114.31 1248.1499999999999 3114.31C1241.4699999999998 3114.31 1235.9999999999998 3108.84 1235.9999999999998 3102.15C1235.9999999999998 3095.4700000000003 1241.4699999999998 3090 1248.1499999999999 3090C1249.7299999999998 3090 1251.31 3090.36 1252.7699999999998 3090.85L1250.8299999999997 3092.79C1249.9799999999998 3092.55 1249.1299999999997 3092.43 1248.1499999999996 3092.43C1242.8099999999997 3092.43 1238.4299999999996 3096.7999999999997 1238.4299999999996 3102.1499999999996C1238.4299999999996 3107.4999999999995 1242.8099999999997 3111.8799999999997 1248.1499999999996 3111.8799999999997C1253.4999999999995 3111.8799999999997 1257.8799999999997 3107.4999999999995 1257.8799999999997 3102.1499999999996Z " fill="#00ffad" transform="matrix(1,0,0,1,-1236,-3090)"></path></svg>