<svg id="SvgjsSvg1000" xmlns="http://www.w3.org/2000/svg" version="1.1" xmlns:xlink="http://www.w3.org/1999/xlink" xmlns:svgjs="http://svgjs.com/svgjs" width="25" height="26"><defs id="SvgjsDefs1001"></defs><path id="SvgjsPath1007" d="M1150 54.7793C1150 54.7669 1149.99 54.7536 1149.99 54.7413C1149.99 54.737700000000004 1149.99 54.732400000000005 1149.99 54.7289C1149.99 54.7139 1149.98 54.6997 1149.98 54.6856C1149.98 54.683 1149.98 54.681200000000004 1149.98 54.6794C1149.97 54.6644 1149.97 54.6503 1149.96 54.6361C1149.96 54.6344 1149.96 54.6335 1149.96 54.6317C1149.95 54.618500000000004 1149.95 54.606100000000005 1149.94 54.592800000000004C1149.94 54.5893 1149.94 54.587500000000006 1149.94 54.585800000000006C1149.93 54.57430000000001 1149.93 54.5628 1149.92 54.552200000000006C1149.92 54.54860000000001 1149.91 54.545100000000005 1149.91 54.54160000000001C1149.91 54.53190000000001 1149.9 54.52300000000001 1149.89 54.51420000000001C1149.89 54.50890000000001 1149.88 54.50450000000001 1149.88 54.50090000000001C1149.8700000000001 54.48940000000001 1149.8600000000001 54.48060000000001 1149.8500000000001 54.47090000000001C1149.8500000000001 54.46820000000001 1149.8500000000001 54.46560000000001 1149.8500000000001 54.462900000000005L1139.5400000000002 44.149800000000006C1139.5300000000002 44.143600000000006 1139.5200000000002 44.13740000000001 1139.5100000000002 44.13040000000001C1139.5100000000002 44.12590000000001 1139.5000000000002 44.122400000000006 1139.5000000000002 44.11710000000001C1139.4900000000002 44.11090000000001 1139.4800000000002 44.10390000000001 1139.4700000000003 44.09680000000001C1139.4700000000003 44.09410000000001 1139.4600000000003 44.09060000000001 1139.4600000000003 44.08620000000001C1139.4500000000003 44.081800000000015 1139.4400000000003 44.075600000000016 1139.4300000000003 44.07030000000001C1139.4200000000003 44.06670000000001 1139.4200000000003 44.06320000000001 1139.4100000000003 44.06060000000001C1139.4000000000003 44.05530000000001 1139.4000000000003 44.05170000000001 1139.3900000000003 44.04730000000001C1139.3800000000003 44.044700000000006 1139.3700000000003 44.04110000000001 1139.3700000000003 44.037600000000005C1139.3600000000004 44.03490000000001 1139.3500000000004 44.032300000000006 1139.3400000000004 44.0296C1139.3300000000004 44.0261 1139.3300000000004 44.0235 1139.3200000000004 44.0217C1139.3100000000004 44.019000000000005 1139.3000000000004 44.016400000000004 1139.2900000000004 44.0137C1139.2900000000004 44.0128 1139.2800000000004 44.0102 1139.2700000000004 44.0075C1139.2600000000004 44.0067 1139.2500000000005 44.0058 1139.2400000000005 44.004C1139.2300000000005 44.003099999999996 1139.2300000000005 44.0014 1139.2200000000005 44.0014C1139.2000000000005 43.999599999999994 1139.1900000000005 43.9987 1139.1700000000005 43.9987C1139.1600000000005 43.9987 1139.1600000000005 43.9987 1139.1600000000005 43.9987C1139.1400000000006 43.9987 1139.1300000000006 43.9996 1139.1200000000006 44.0014C1139.1100000000006 44.002199999999995 1139.1000000000006 44.004 1139.0900000000006 44.004C1139.0800000000006 44.0058 1139.0700000000006 44.006699999999995 1139.0700000000006 44.0075C1139.0600000000006 44.0102 1139.0500000000006 44.0137 1139.0400000000006 44.0155C1139.0300000000007 44.017300000000006 1139.0200000000007 44.019000000000005 1139.0200000000007 44.0208C1139.0100000000007 44.0235 1139.0000000000007 44.027 1138.9900000000007 44.0305C1138.9800000000007 44.0332 1138.9700000000007 44.0349 1138.9700000000007 44.037600000000005C1138.9600000000007 44.042 1138.9500000000007 44.045500000000004 1138.9400000000007 44.0508C1138.9400000000007 44.0535 1138.9300000000007 44.0553 1138.9200000000008 44.058800000000005C1138.9100000000008 44.0641 1138.9000000000008 44.0703 1138.9000000000008 44.07470000000001C1138.8900000000008 44.07820000000001 1138.8800000000008 44.08180000000001 1138.8800000000008 44.086200000000005C1138.8700000000008 44.092400000000005 1138.8600000000008 44.098600000000005 1138.8500000000008 44.107400000000005C1138.8500000000008 44.11090000000001 1138.8400000000008 44.112700000000004 1138.8400000000008 44.116200000000006C1138.8200000000008 44.127700000000004 1138.8100000000009 44.13830000000001 1138.8000000000009 44.1525L1125.1500000000008 57.7976C1125.1500000000008 57.7976 1125.1500000000008 57.798500000000004 1125.1500000000008 57.7993C1125.1400000000008 57.8108 1125.1300000000008 57.822300000000006 1125.1200000000008 57.834700000000005C1125.1200000000008 57.83820000000001 1125.1100000000008 57.842600000000004 1125.1100000000008 57.8462C1125.1000000000008 57.855900000000005 1125.0900000000008 57.864700000000006 1125.0900000000008 57.8753C1125.0900000000008 57.8797 1125.0800000000008 57.882400000000004 1125.0800000000008 57.885000000000005C1125.0700000000008 57.8965 1125.0700000000008 57.90710000000001 1125.0600000000009 57.92040000000001C1125.0600000000009 57.92130000000001 1125.0600000000009 57.92390000000001 1125.0600000000009 57.92660000000001C1125.0500000000009 57.93890000000001 1125.0500000000009 57.952200000000005 1125.0400000000009 57.96540000000001C1125.0400000000009 57.96630000000001 1125.0400000000009 57.96810000000001 1125.0400000000009 57.96990000000001C1125.0300000000009 57.98400000000001 1125.0300000000009 57.99810000000001 1125.020000000001 58.01400000000001C1125.020000000001 58.01580000000001 1125.020000000001 58.01670000000001 1125.020000000001 58.01850000000001C1125.020000000001 58.03350000000001 1125.010000000001 58.04760000000001 1125.010000000001 58.06350000000001C1125.010000000001 58.06710000000001 1125.010000000001 58.07060000000001 1125.010000000001 58.07590000000001C1125.010000000001 58.08740000000001 1125.000000000001 58.09980000000001 1125.000000000001 58.11390000000001C1125.000000000001 58.13070000000001 1125.000000000001 58.14750000000001 1125.000000000001 58.16600000000001C1125.000000000001 58.182800000000015 1125.000000000001 58.20050000000001 1125.000000000001 58.21820000000001C1125.000000000001 58.23050000000001 1125.010000000001 58.24290000000001 1125.010000000001 58.25530000000001C1125.010000000001 58.25970000000001 1125.010000000001 58.26320000000001 1125.010000000001 58.26850000000001C1125.010000000001 58.28270000000001 1125.020000000001 58.29770000000001 1125.020000000001 58.31270000000001C1125.020000000001 58.31360000000001 1125.020000000001 58.31530000000001 1125.020000000001 58.318000000000005C1125.0300000000009 58.332100000000004 1125.0300000000009 58.34630000000001 1125.0400000000009 58.360400000000006C1125.0400000000009 58.36220000000001 1125.0400000000009 58.36390000000001 1125.0400000000009 58.3648C1125.0500000000009 58.3781 1125.0500000000009 58.3913 1125.0600000000009 58.4046C1125.0600000000009 58.406400000000005 1125.0600000000009 58.408100000000005 1125.0600000000009 58.4117C1125.0700000000008 58.423100000000005 1125.0700000000008 58.4337 1125.0800000000008 58.444300000000005C1125.0800000000008 58.447900000000004 1125.0900000000008 58.45230000000001 1125.0900000000008 58.4558C1125.0900000000008 58.4647 1125.1000000000008 58.4744 1125.1100000000008 58.483200000000004C1125.1100000000008 58.4876 1125.1200000000008 58.492900000000006 1125.1200000000008 58.4956C1125.1300000000008 58.5062 1125.1400000000008 58.5159 1125.1500000000008 58.525600000000004C1125.1500000000008 58.5283 1125.1500000000008 58.5309 1125.1500000000008 58.5345L1134.5800000000008 67.957L1132.2900000000009 67.957C1132.000000000001 67.957 1131.770000000001 68.18929999999999 1131.770000000001 68.47739999999999C1131.770000000001 68.76459999999999 1132.000000000001 68.99869999999999 1132.2900000000009 68.99869999999999L1142.710000000001 68.99869999999999C1143.000000000001 68.99869999999999 1143.230000000001 68.76459999999999 1143.230000000001 68.47739999999999C1143.230000000001 68.18929999999999 1143.000000000001 67.957 1142.710000000001 67.957L1137.090000000001 67.957L1149.850000000001 55.199799999999996C1149.850000000001 55.199 1149.850000000001 55.199 1149.850000000001 55.1981C1149.860000000001 55.1866 1149.870000000001 55.17509999999999 1149.880000000001 55.161899999999996C1149.880000000001 55.1583 1149.890000000001 55.154799999999994 1149.890000000001 55.1504C1149.900000000001 55.1406 1149.910000000001 55.1309 1149.910000000001 55.1203C1149.910000000001 55.1177 1149.920000000001 55.1141 1149.920000000001 55.1106C1149.930000000001 55.1 1149.930000000001 55.088499999999996 1149.940000000001 55.077C1149.940000000001 55.0753 1149.940000000001 55.0726 1149.940000000001 55.07C1149.950000000001 55.0576 1149.950000000001 55.0443 1149.960000000001 55.0302C1149.960000000001 55.0293 1149.960000000001 55.0275 1149.960000000001 55.025800000000004C1149.970000000001 55.0125 1149.970000000001 54.9975 1149.980000000001 54.9834C1149.980000000001 54.9816 1149.980000000001 54.979000000000006 1149.980000000001 54.978100000000005C1149.980000000001 54.9639 1149.990000000001 54.94800000000001 1149.990000000001 54.93390000000001C1149.990000000001 54.92950000000001 1149.990000000001 54.92510000000001 1149.990000000001 54.92150000000001C1149.990000000001 54.90740000000001 1150.000000000001 54.89590000000001 1150.000000000001 54.88350000000001C1150.000000000001 54.86590000000001 1150.000000000001 54.849100000000014 1150.000000000001 54.830500000000015C1150.000000000001 54.81370000000001 1150.000000000001 54.796900000000015 1150.000000000001 54.77930000000001ZM1142.92 55.3518L1148.22 55.3518L1135.83 67.7405L1126.78 58.686499999999995L1135.31 58.686499999999995L1135.31 63.3032C1135.31 63.5903 1135.55 63.8236 1135.83 63.8236C1136.12 63.8236 1136.35 63.5903 1136.35 63.3032L1136.35 58.686499999999995L1139.1699999999998 58.686499999999995C1139.4499999999998 58.686499999999995 1139.6899999999998 58.453199999999995 1139.6899999999998 58.166L1139.6899999999998 45.7774L1148.2199999999998 54.3101L1142.9199999999998 54.3101C1142.6299999999999 54.3101 1142.3999999999999 54.5442 1142.3999999999999 54.8305C1142.3999999999999 55.1186 1142.6299999999999 55.3518 1142.9199999999998 55.3518ZM1138.65 45.7774L1138.65 57.6447L1126.7800000000002 57.6447ZM1141.25 54.3101L1140.94 54.3101C1140.65 54.3101 1140.42 54.5442 1140.42 54.8305C1140.42 55.1186 1140.65 55.3518 1140.94 55.3518L1141.25 55.3518C1141.54 55.3518 1141.77 55.1186 1141.77 54.8305C1141.77 54.544200000000004 1141.54 54.3101 1141.25 54.3101ZM1135.83 64.4492C1135.55 64.4492 1135.31 64.6815 1135.31 64.9696L1135.31 65.2833C1135.31 65.56949999999999 1135.55 65.80369999999999 1135.83 65.80369999999999C1136.12 65.80369999999999 1136.35 65.56949999999999 1136.35 65.2833L1136.35 64.9696C1136.35 64.6815 1136.12 64.4492 1135.83 64.4492Z " fill="#82e6fd" transform="matrix(1,0,0,1,-1125,-43)"></path></svg>