<svg id="SvgjsSvg1053" xmlns="http://www.w3.org/2000/svg" version="1.1" xmlns:xlink="http://www.w3.org/1999/xlink" xmlns:svgjs="http://svgjs.com/svgjs" width="94" height="45"><defs id="SvgjsDefs1054"></defs><path id="SvgjsPath1055" d="M1522.54 4999.57L1511.6299999999999 4987.17C1511.28 4986.76 1510.76 4986.53 1510.2199999999998 4986.53L1501.1399999999999 4986.53L1501.1399999999999 4978.87C1501.1399999999999 4977.84 1500.31 4977 1499.27 4977L1460.6 4977C1459.56 4977 1458.73 4977.84 1458.73 4978.87L1458.73 4981.38L1440.72 4981.38C1439.68 4981.38 1438.84 4982.22 1438.84 4983.25C1438.84 4984.28 1439.6799999999998 4985.12 1440.72 4985.12L1458.73 4985.12L1458.73 5009.3099999999995L1447.89 5009.3099999999995C1446.8500000000001 5009.3099999999995 1446.01 5010.15 1446.01 5011.179999999999C1446.01 5012.209999999999 1446.85 5013.039999999999 1447.89 5013.039999999999L1458.73 5013.039999999999L1458.73 5014.939999999999C1458.73 5015.969999999998 1459.56 5016.809999999999 1460.6 5016.809999999999L1464.51 5016.809999999999C1465.33 5019.799999999998 1468.08 5021.999999999998 1471.34 5021.999999999998C1474.59 5021.999999999998 1477.34 5019.799999999998 1478.1699999999998 5016.809999999999L1503.1499999999999 5016.809999999999C1503.9799999999998 5019.799999999998 1506.7199999999998 5021.999999999998 1509.9799999999998 5021.999999999998C1513.2399999999998 5021.999999999998 1515.9899999999998 5019.799999999998 1516.8099999999997 5016.809999999999L1521.1299999999997 5016.809999999999C1522.1599999999996 5016.809999999999 1522.9999999999995 5015.969999999998 1522.9999999999995 5014.939999999999L1522.9999999999995 5000.799999999998C1522.9999999999995 5000.3499999999985 1522.8299999999995 4999.909999999998 1522.5399999999995 4999.569999999999ZM1478.17 5013.07C1477.3400000000001 5010.08 1474.5900000000001 5007.88 1471.3400000000001 5007.88C1468.0800000000002 5007.88 1465.3300000000002 5010.08 1464.5100000000002 5013.07L1462.4700000000003 5013.07L1462.4700000000003 4980.73L1497.4000000000003 4980.73L1497.4000000000003 5013.07ZM1516.81 5013.07C1515.99 5010.08 1513.24 5007.88 1509.98 5007.88C1506.72 5007.88 1503.98 5010.08 1503.15 5013.07L1501.14 5013.07L1501.14 4990.259999999999L1509.3700000000001 4990.259999999999L1519.2500000000002 5001.499999999999L1519.2500000000002 5013.069999999999ZM1509.98 5018.27C1508.14 5018.27 1506.64 5016.77 1506.64 5014.9400000000005C1506.64 5013.1 1508.14 5011.610000000001 1509.98 5011.610000000001C1511.82 5011.610000000001 1513.32 5013.1 1513.32 5014.9400000000005C1513.32 5016.77 1511.82 5018.27 1509.98 5018.27ZM1471.34 5018.27C1469.5 5018.27 1468 5016.77 1468 5014.9400000000005C1468 5013.1 1469.5 5011.610000000001 1471.34 5011.610000000001C1473.1799999999998 5011.610000000001 1474.6699999999998 5013.1 1474.6699999999998 5014.9400000000005C1474.6699999999998 5016.77 1473.1799999999998 5018.27 1471.34 5018.27ZM1441.72 5009.31L1440.72 5009.31C1439.68 5009.31 1438.84 5010.150000000001 1438.84 5011.18C1438.84 5012.21 1439.6799999999998 5013.04 1440.72 5013.04L1441.72 5013.04C1442.75 5013.04 1443.59 5012.21 1443.59 5011.18C1443.59 5010.150000000001 1442.75 5009.31 1441.72 5009.31ZM1450.94 4995.16L1430.8700000000001 4995.16C1429.8400000000001 4995.16 1429.0000000000002 4995.99 1429.0000000000002 4997.03C1429.0000000000002 4998.0599999999995 1429.8400000000001 4998.889999999999 1430.8700000000001 4998.889999999999L1450.94 4998.889999999999C1451.97 4998.889999999999 1452.81 4998.0599999999995 1452.81 4997.03C1452.81 4995.99 1451.97 4995.16 1450.94 4995.16Z " fill="#00ffad" transform="matrix(1,0,0,1,-1429,-4977)"></path></svg>