<svg id="SvgjsSvg1068" xmlns="http://www.w3.org/2000/svg" version="1.1" xmlns:xlink="http://www.w3.org/1999/xlink" xmlns:svgjs="http://svgjs.com/svgjs" width="75" height="89"><defs id="SvgjsDefs1069"></defs><path id="SvgjsPath1070" d="M1458.22 11558.3C1456.57 11560.8 1456.57 11564 1458.22 11566.5L1451.66 11573.1C1449.23 11571.5 1445.8400000000001 11571.5 1443.41 11573.1L1440.14 11569.800000000001C1439.5500000000002 11569.2 1438.6100000000001 11569.2 1438.0200000000002 11569.800000000001C1437.4400000000003 11570.400000000001 1437.4400000000003 11571.300000000001 1438.0200000000002 11571.900000000001L1443.3100000000002 11577.2L1444.3700000000001 11576.1C1446.0600000000002 11574.4 1449.0100000000002 11574.4 1450.71 11576.1L1451.77 11577.2L1462.34 11566.6L1461.28 11565.6C1459.53 11563.800000000001 1459.53 11561 1461.28 11559.300000000001L1462.34 11558.2L1457.05 11552.900000000001C1456.47 11552.300000000001 1455.52 11552.300000000001 1454.94 11552.900000000001C1454.3600000000001 11553.500000000002 1454.3600000000001 11554.500000000002 1454.94 11555.000000000002ZM1413.71 11547.6L1418.99 11552.9C1419.29 11553.199999999999 1419.67 11553.4 1420.05 11553.4C1420.43 11553.4 1420.82 11553.199999999999 1421.11 11552.9C1421.6899999999998 11552.3 1421.6899999999998 11551.4 1421.11 11550.8L1417.83 11547.5C1419.48 11545.1 1419.48 11541.8 1417.83 11539.3L1424.3799999999999 11532.8C1426.81 11534.4 1430.2099999999998 11534.4 1432.6299999999999 11532.8L1435.9099999999999 11536C1436.4899999999998 11536.6 1437.4399999999998 11536.6 1438.0199999999998 11536C1438.6099999999997 11535.5 1438.6099999999997 11534.5 1438.0199999999998 11533.9L1432.7399999999998 11528.699999999999L1431.6799999999998 11529.699999999999C1429.9799999999998 11531.4 1427.0299999999997 11531.4 1425.34 11529.699999999999L1424.28 11528.699999999999L1413.71 11539.199999999999L1414.76 11540.3C1416.51 11542 1416.51 11544.8 1414.76 11546.599999999999ZM1445.8 11590.1C1442.9099999999999 11590.1 1440.57 11592.4 1440.57 11595.300000000001C1440.57 11598.2 1442.9099999999999 11600.500000000002 1445.8 11600.500000000002C1448.69 11600.500000000002 1451.03 11598.200000000003 1451.03 11595.300000000001C1451.03 11592.400000000001 1448.69 11590.1 1445.8 11590.1ZM1445.8 11597.5C1444.56 11597.5 1443.56 11596.5 1443.56 11595.3C1443.56 11594.099999999999 1444.56 11593.099999999999 1445.8 11593.099999999999C1447.04 11593.099999999999 1448.04 11594.099999999999 1448.04 11595.3C1448.04 11596.5 1447.04 11597.5 1445.8 11597.5ZM1429.57 11527.6C1430.1499999999999 11527 1430.7 11526.1 1430.12 11525.5C1429.53 11524.9 1428.58 11524.9 1428 11525.5C1427.42 11526.1 1426.87 11527 1427.45 11527.6C1428.04 11528.2 1428.98 11528.2 1429.57 11527.6ZM1462.96 11562.4C1462.96 11563.199999999999 1463.63 11563.9 1464.45 11563.9C1465.28 11563.9 1465.95 11563.199999999999 1465.95 11562.4C1465.95 11561.6 1465.28 11560.9 1464.45 11560.9C1463.63 11560.9 1462.96 11561.6 1462.96 11562.4ZM1446.04 11579.3C1446.04 11580.099999999999 1446.71 11580.8 1447.54 11580.8C1448.36 11580.8 1449.03 11580.099999999999 1449.03 11579.3C1449.03 11578.5 1448.36 11577.8 1447.54 11577.8C1446.71 11577.8 1446.04 11578.5 1446.04 11579.3ZM1410.1 11543.4C1410.1 11544.3 1410.77 11544.9 1411.59 11544.9C1412.4199999999998 11544.9 1413.09 11544.3 1413.09 11543.4C1413.09 11542.6 1412.4199999999998 11541.9 1411.59 11541.9C1410.77 11541.9 1410.1 11542.6 1410.1 11543.4ZM1470.47 11571.4C1470.47 11570.1 1470.26 11568.8 1469.8500000000001 11567.6L1475.0200000000002 11562.4L1468.2100000000003 11555.5C1469.6200000000003 11554.3 1470.4700000000003 11552.5 1470.4700000000003 11550.5C1470.4700000000003 11546.8 1467.4500000000003 11543.8 1463.7400000000002 11543.8C1463.4700000000003 11543.8 1463.2000000000003 11543.9 1462.9300000000003 11543.9C1462.9700000000003 11543.6 1462.9900000000002 11543.4 1462.9900000000002 11543.1C1462.9900000000002 11539.4 1459.9800000000002 11536.4 1456.2700000000002 11536.4C1455.9900000000002 11536.4 1455.7200000000003 11536.4 1455.4600000000003 11536.4C1455.4900000000002 11536.199999999999 1455.5200000000002 11535.9 1455.5200000000002 11535.6C1455.5200000000002 11531.9 1452.5000000000002 11528.9 1448.7900000000002 11528.9C1448.5200000000002 11528.9 1448.2500000000002 11528.9 1447.9800000000002 11529C1448.0200000000002 11528.7 1448.0400000000002 11528.4 1448.0400000000002 11528.2C1448.0400000000002 11524.300000000001 1445.4400000000003 11521.5 1441.8700000000001 11521.5C1439.91 11521.5 1437.94 11522.3 1436.5700000000002 11523.6L1429.0800000000002 11516L1401.0100000000002 11543.4L1414.8300000000002 11557.199999999999C1414.0900000000001 11558.3 1413.66 11559.599999999999 1413.66 11560.999999999998C1413.66 11563.299999999997 1414.8600000000001 11565.399999999998 1416.68 11566.599999999999C1416.77 11566.699999999999 1416.8700000000001 11566.8 1417.01 11566.899999999998L1433.09 11582.899999999998L1433.09 11585.599999999999L1430.1 11585.599999999999L1430.1 11604.999999999998L1468.98 11604.999999999998L1468.98 11585.599999999999L1465.99 11585.599999999999L1465.99 11581.099999999999C1468.85 11578.699999999999 1470.47 11575.199999999999 1470.47 11571.399999999998ZM1429.04 11520.2L1434.8799999999999 11526.1L1434.7499999999998 11526.4L1442.2199999999998 11533.9L1443.0799999999997 11534.699999999999L1449.6999999999996 11541.3L1450.5599999999995 11542.199999999999L1457.1699999999994 11548.8L1458.0299999999993 11549.599999999999L1465.5099999999993 11557.099999999999L1465.5299999999993 11557.099999999999L1470.7999999999993 11562.399999999998L1447.5599999999993 11585.599999999999L1447.5099999999993 11585.599999999999L1429.5699999999993 11567.699999999999C1429.7299999999993 11567.699999999999 1435.6299999999992 11567.699999999999 1435.7799999999993 11567.699999999999C1436.5299999999993 11567.8 1437.2699999999993 11567.8 1438.0199999999993 11567.8C1441.9499999999994 11567.8 1445.7799999999993 11566.3 1448.5899999999992 11563.5C1451.4199999999992 11560.7 1452.9699999999993 11556.9 1452.9699999999993 11552.9C1452.9699999999993 11548.9 1451.4199999999994 11545.199999999999 1448.5899999999992 11542.4C1442.7699999999993 11536.6 1433.2799999999993 11536.6 1427.4499999999991 11542.4C1424.279999999999 11545.5 1422.739999999999 11549.9 1423.1399999999992 11554.3L1420.3799999999992 11554.3C1419.989999999999 11554.3 1419.5999999999992 11554.3 1419.2199999999991 11554.4C1419.089999999999 11554.4 1418.9699999999991 11554.4 1418.8499999999992 11554.5C1418.5699999999993 11554.5 1418.2999999999993 11554.6 1418.0299999999993 11554.7C1417.7999999999993 11554.800000000001 1417.5799999999992 11554.900000000001 1417.3599999999992 11555C1417.2499999999993 11555.1 1417.1399999999992 11555.1 1417.0299999999993 11555.2L1405.2599999999993 11543.400000000001ZM1429.57 11544.5C1434.23 11539.8 1441.82 11539.8 1446.48 11544.5C1448.74 11546.7 1449.98 11549.7 1449.98 11552.9C1449.98 11556.1 1448.74 11559.1 1446.48 11561.4C1444.98 11562.9 1443.1100000000001 11563.9 1441.1 11564.4C1441.26 11564.199999999999 1441.3999999999999 11563.9 1441.53 11563.6C1441.53 11563.6 1441.54 11563.6 1441.55 11563.5C1441.69 11563.2 1441.8 11562.8 1441.8799999999999 11562.5C1441.8999999999999 11562.4 1441.9199999999998 11562.3 1441.9399999999998 11562.2C1442.0099999999998 11561.800000000001 1442.0599999999997 11561.400000000001 1442.0599999999997 11561C1442.0599999999997 11557.3 1439.0499999999997 11554.3 1435.3399999999997 11554.3L1426.1499999999996 11554.3C1425.7299999999996 11550.699999999999 1426.9699999999996 11547.099999999999 1429.5699999999997 11544.5ZM1435.56 11581.1C1435.49 11581 1435.4199999999998 11581 1435.29 11580.9L1422.02 11567.699999999999L1425.34 11567.699999999999L1443.29 11585.599999999999L1436.08 11585.599999999999L1436.08 11581.499999999998ZM1433.09 11602L1433.09 11588.6C1433.3 11588.6 1446.1 11588.6 1446.3 11588.6L1447.54 11589.800000000001L1448.35 11589.000000000002C1451.6399999999999 11590.100000000002 1454.02 11593.200000000003 1454.02 11596.900000000001L1454.02 11602.000000000002ZM1451.79 11585.6L1457.37 11580L1467.3799999999999 11570C1467.4499999999998 11570.5 1467.4799999999998 11571 1467.4799999999998 11571.4C1467.4799999999998 11574.5 1466.0599999999997 11577.3 1463.5899999999997 11579.199999999999L1462.9899999999998 11579.599999999999L1462.9899999999998 11585.599999999999ZM1465.98 11602L1457.01 11602L1457.01 11596.9C1457.01 11593.6 1455.59 11590.6 1453.33 11588.6L1465.98 11588.6ZM1416.65 11561C1416.65 11560 1417.0400000000002 11559.1 1417.66 11558.5L1417.88 11558.2C1418.4 11557.800000000001 1419.0300000000002 11557.5 1419.69 11557.300000000001C1419.91 11557.300000000001 1420.14 11557.300000000001 1420.38 11557.300000000001L1435.3300000000002 11557.300000000001C1437.39 11557.300000000001 1439.0700000000002 11558.900000000001 1439.0700000000002 11561.000000000002C1439.0700000000002 11561.200000000003 1439.0400000000002 11561.500000000002 1439.0000000000002 11561.700000000003C1438.6800000000003 11563.300000000003 1437.3400000000001 11564.500000000002 1435.6800000000003 11564.700000000003L1420.3800000000003 11564.700000000003C1418.3200000000004 11564.700000000003 1416.6500000000003 11563.000000000002 1416.6500000000003 11561.000000000002ZM1467.48 11550.5C1467.48 11551.7 1466.96 11552.7 1466.1100000000001 11553.4L1460.89 11548.1C1461.5900000000001 11547.300000000001 1462.6200000000001 11546.800000000001 1463.74 11546.800000000001C1465.8 11546.800000000001 1467.48 11548.500000000002 1467.48 11550.500000000002ZM1460 11543.1C1460 11544.2 1459.5 11545.2 1458.68 11545.9L1453.46 11540.6C1454.16 11539.800000000001 1455.17 11539.4 1456.27 11539.4C1458.33 11539.4 1460 11541 1460 11543.1ZM1452.53 11535.6C1452.53 11536.7 1452.04 11537.7 1451.25 11538.4L1446.03 11533.1C1446.73 11532.4 1447.72 11531.9 1448.79 11531.9C1450.85 11531.9 1452.53 11533.6 1452.53 11535.6ZM1441.87 11524.4C1444.07 11524.4 1445.05 11526.3 1445.05 11528.199999999999C1445.05 11529.199999999999 1444.58 11530.199999999999 1443.82 11530.9L1438.6599999999999 11525.699999999999C1439.4699999999998 11524.999999999998 1440.6899999999998 11524.4 1441.87 11524.4Z " fill="#000000" transform="matrix(1,0,0,1,-1401,-11516)"></path></svg>