<svg id="SvgjsSvg1071" xmlns="http://www.w3.org/2000/svg" version="1.1" xmlns:xlink="http://www.w3.org/1999/xlink" xmlns:svgjs="http://svgjs.com/svgjs" width="76" height="76"><defs id="SvgjsDefs1072"></defs><path id="SvgjsPath1073" d="M987.12 13794.7L947.6 13794.7L947.6 13788.300000000001C947.6 13784.800000000001 944.813 13782.000000000002 941.267 13782.000000000002L933.667 13782.000000000002C930.12 13782.000000000002 927.3330000000001 13784.800000000001 927.3330000000001 13788.300000000001L927.3330000000001 13795.300000000001C923.6170000000001 13796.800000000001 921.0000000000001 13800.400000000001 921.0000000000001 13804.500000000002L921.0000000000001 13848.100000000002C921.0000000000001 13853.600000000002 925.4330000000001 13858.000000000002 930.8800000000001 13858.000000000002L987.1200000000001 13858.000000000002C992.5660000000001 13858.000000000002 997.0000000000001 13853.600000000002 997.0000000000001 13848.200000000003L997.0000000000001 13804.500000000002C997.0000000000001 13799.100000000002 992.5660000000001 13794.700000000003 987.1200000000001 13794.700000000003ZM994.593 13848.1C994.593 13852.2 991.3 13855.5 987.246 13855.5L930.88 13855.5C926.827 13855.5 923.533 13852.2 923.533 13848.2L923.533 13804.5C923.533 13801.8 925.053 13799.4 927.333 13798.1L927.333 13846.6C927.333 13850.1 930.12 13852.9 933.6669999999999 13852.9L941.2669999999999 13852.9C944.813 13852.9 947.5999999999999 13850.1 947.5999999999999 13846.6L947.5999999999999 13797.2L987.2459999999999 13797.2C991.2999999999998 13797.2 994.5929999999998 13800.5 994.5929999999998 13804.5ZM929.867 13788.3C929.867 13786.199999999999 931.64 13784.5 933.6669999999999 13784.5L941.2669999999999 13784.5C943.42 13784.5 945.0659999999999 13786.2 945.0659999999999 13788.3L945.0659999999999 13846.599999999999C945.0659999999999 13848.8 943.42 13850.399999999998 941.2669999999999 13850.399999999998L933.6669999999999 13850.399999999998C931.5129999999999 13850.399999999998 929.867 13848.799999999997 929.867 13846.599999999999ZM988.133 13799.7L955.2 13799.7C953.046 13799.7 951.4000000000001 13801.400000000001 951.4000000000001 13803.5L951.4000000000001 13811.1C951.4000000000001 13813.300000000001 953.046 13814.9 955.2 13814.9L988.133 13814.9C990.2860000000001 13814.9 991.933 13813.3 991.933 13811.1L991.933 13803.5C991.933 13801.4 990.286 13799.7 988.133 13799.7ZM989.4 13811.1C989.4 13811.9 988.893 13812.4 988.1329999999999 13812.4L955.1999999999999 13812.4C954.4399999999999 13812.4 953.9329999999999 13811.9 953.9329999999999 13811.1L953.9329999999999 13803.5C953.9329999999999 13802.8 954.4399999999998 13802.3 955.1999999999999 13802.3L988.1329999999999 13802.3C988.8929999999999 13802.3 989.4 13802.8 989.4 13803.5ZM988.133 13830.1L983.066 13830.1C981.673 13830.1 980.533 13831.300000000001 980.533 13832.7L980.533 13837.7C980.533 13839.1 981.673 13840.300000000001 983.066 13840.300000000001L988.133 13840.300000000001C989.5260000000001 13840.300000000001 990.666 13839.1 990.666 13837.7L990.666 13832.7C990.666 13831.300000000001 989.5260000000001 13830.1 988.133 13830.1ZM974.2 13830.1L969.133 13830.1C967.74 13830.1 966.6 13831.300000000001 966.6 13832.7L966.6 13837.7C966.6 13839.1 967.74 13840.300000000001 969.133 13840.300000000001L974.2 13840.300000000001C975.5930000000001 13840.300000000001 976.7330000000001 13839.1 976.7330000000001 13837.7L976.7330000000001 13832.7C976.7330000000001 13831.300000000001 975.5930000000001 13830.1 974.2 13830.1ZM960.267 13830.1L955.2 13830.1C953.807 13830.1 952.667 13831.300000000001 952.667 13832.7L952.667 13837.7C952.667 13839.1 953.807 13840.300000000001 955.2 13840.300000000001L960.267 13840.300000000001C961.6600000000001 13840.300000000001 962.8000000000001 13839.1 962.8000000000001 13837.7L962.8000000000001 13832.7C962.8000000000001 13831.300000000001 961.6600000000001 13830.1 960.267 13830.1ZM988.133 13817.5L983.066 13817.5C981.673 13817.5 980.533 13818.6 980.533 13820L980.533 13825.1C980.533 13826.5 981.673 13827.6 983.066 13827.6L988.133 13827.6C989.5260000000001 13827.6 990.666 13826.5 990.666 13825.1L990.666 13820C990.666 13818.6 989.5260000000001 13817.5 988.133 13817.5ZM988.133 13842.8L983.066 13842.8C981.673 13842.8 980.533 13843.9 980.533 13845.3L980.533 13850.4C980.533 13851.8 981.673 13852.9 983.066 13852.9L988.133 13852.9C989.5260000000001 13852.9 990.666 13851.8 990.666 13850.4L990.666 13845.3C990.666 13843.9 989.5260000000001 13842.8 988.133 13842.8ZM974.2 13817.5L969.133 13817.5C967.74 13817.5 966.6 13818.6 966.6 13820L966.6 13825.1C966.6 13826.5 967.74 13827.6 969.133 13827.6L974.2 13827.6C975.5930000000001 13827.6 976.7330000000001 13826.5 976.7330000000001 13825.1L976.7330000000001 13820C976.7330000000001 13818.6 975.5930000000001 13817.5 974.2 13817.5ZM974.2 13842.8L969.133 13842.8C967.74 13842.8 966.6 13843.9 966.6 13845.3L966.6 13850.4C966.6 13851.8 967.74 13852.9 969.133 13852.9L974.2 13852.9C975.5930000000001 13852.9 976.7330000000001 13851.8 976.7330000000001 13850.4L976.7330000000001 13845.3C976.7330000000001 13843.9 975.5930000000001 13842.8 974.2 13842.8ZM960.267 13842.8L955.2 13842.8C953.807 13842.8 952.667 13843.9 952.667 13845.3L952.667 13850.4C952.667 13851.8 953.807 13852.9 955.2 13852.9L960.267 13852.9C961.6600000000001 13852.9 962.8000000000001 13851.8 962.8000000000001 13850.4L962.8000000000001 13845.3C962.8000000000001 13843.9 961.6600000000001 13842.8 960.267 13842.8ZM960.267 13817.5L955.2 13817.5C953.807 13817.5 952.667 13818.6 952.667 13820L952.667 13825.1C952.667 13826.5 953.807 13827.6 955.2 13827.6L960.267 13827.6C961.6600000000001 13827.6 962.8000000000001 13826.5 962.8000000000001 13825.1L962.8000000000001 13820C962.8000000000001 13818.6 961.6600000000001 13817.5 960.267 13817.5ZM975.087 13803.9C974.58 13803.4 973.8199999999999 13803.4 973.313 13803.9L968.246 13809C967.74 13809.5 967.74 13810.2 968.246 13810.8C968.5 13811 968.7529999999999 13811.099999999999 969.1329999999999 13811.099999999999C969.5129999999999 13811.099999999999 969.766 13810.999999999998 970.0199999999999 13810.8L975.0859999999999 13805.699999999999C975.5929999999998 13805.199999999999 975.5929999999998 13804.4 975.0869999999999 13803.9ZM967.486 13803.9C966.98 13803.4 966.22 13803.4 965.713 13803.9L960.646 13809C960.14 13809.5 960.14 13810.2 960.646 13810.8C960.9 13811 961.1529999999999 13811.099999999999 961.5329999999999 13811.099999999999C961.9129999999999 13811.099999999999 962.1659999999999 13810.999999999998 962.4199999999998 13810.8L967.4859999999999 13805.699999999999C967.9929999999998 13805.199999999999 967.9929999999998 13804.4 967.4859999999999 13803.9ZM974.2 13850.4L969.133 13850.4L969.133 13845.3L974.2 13845.3ZM960.267 13825.1L955.2 13825.1L955.2 13820L960.267 13820ZM960.267 13850.4L955.2 13850.4L955.2 13845.3L960.267 13845.3ZM988.133 13850.4L983.066 13850.4L983.066 13845.3L988.133 13845.3ZM974.2 13825.1L969.133 13825.1L969.133 13820L974.2 13820ZM988.133 13825.1L983.066 13825.1L983.066 13820L988.133 13820ZM959.887 13803.9C959.38 13803.4 958.6199999999999 13803.4 958.1129999999999 13803.9L955.5799999999999 13806.4C955.073 13807 955.073 13807.699999999999 955.5799999999999 13808.199999999999C955.833 13808.499999999998 956.0859999999999 13808.599999999999 956.4669999999999 13808.599999999999C956.8459999999999 13808.599999999999 957.0999999999999 13808.499999999998 957.3529999999998 13808.199999999999L959.8859999999999 13805.699999999999C960.3929999999998 13805.199999999999 960.3929999999998 13804.4 959.8869999999998 13803.9ZM985.98 13806.4L983.447 13809C982.94 13809.5 982.94 13810.2 983.447 13810.8C983.7 13811 983.953 13811.099999999999 984.333 13811.099999999999C984.713 13811.099999999999 984.966 13810.999999999998 985.2199999999999 13810.8L987.7529999999999 13808.199999999999C988.2599999999999 13807.699999999999 988.2599999999999 13806.999999999998 987.7529999999999 13806.4C987.246 13805.9 986.4859999999999 13805.9 985.9799999999999 13806.4ZM974.2 13837.7L969.133 13837.7L969.133 13832.7L974.2 13832.7ZM988.133 13837.7L983.066 13837.7L983.066 13832.7L988.133 13832.7ZM960.267 13837.7L955.2 13837.7L955.2 13832.7L960.267 13832.7ZM982.687 13803.9C982.1800000000001 13803.4 981.42 13803.4 980.913 13803.9L975.847 13809C975.34 13809.5 975.34 13810.2 975.847 13810.8C976.1 13811 976.353 13811.099999999999 976.733 13811.099999999999C977.1129999999999 13811.099999999999 977.366 13810.999999999998 977.6199999999999 13810.8L982.6859999999999 13805.699999999999C983.1929999999999 13805.199999999999 983.1929999999999 13804.4 982.6869999999999 13803.9Z " fill="#000000" transform="matrix(1,0,0,1,-921,-13782)"></path></svg>