<svg id="SvgjsSvg1065" xmlns="http://www.w3.org/2000/svg" version="1.1" xmlns:xlink="http://www.w3.org/1999/xlink" xmlns:svgjs="http://svgjs.com/svgjs" width="67" height="76"><defs id="SvgjsDefs1066"></defs><path id="SvgjsPath1067" d="M927.19 11527.7C927.19 11526.900000000001 927.907 11526.2 928.7860000000001 11526.2L989.4040000000001 11526.2C990.2850000000001 11526.2 991.0000000000001 11525.5 991.0000000000001 11524.6C991.0000000000001 11523.7 990.2850000000001 11523 989.4040000000001 11523L928.7860000000001 11523C926.1400000000001 11523 924.0000000000001 11525.1 924.0000000000001 11527.7L924.0000000000001 11599L991.0000000000001 11599L991.0000000000001 11529.3L928.7860000000001 11529.3C927.907 11529.3 927.19 11528.599999999999 927.19 11527.699999999999ZM933.571 11532.5L987.808 11532.5L987.808 11595.8L933.571 11595.8ZM963.879 11545.2L956.565 11557.900000000001L952.714 11551.500000000002L943.143 11567.300000000001L976.643 11567.300000000001ZM930.379 11595.8L927.19 11595.8L927.19 11532.5L930.379 11532.5ZM956.617 11564.2L963.8789999999999 11551.5L971.1439999999999 11564.2ZM966.272 11580L953.5110000000001 11580C952.6300000000001 11580 951.9150000000001 11580.7 951.9150000000001 11581.6C951.9150000000001 11582.5 952.6300000000001 11583.2 953.5110000000001 11583.2L966.272 11583.2C967.1550000000001 11583.2 967.868 11582.5 967.868 11581.6C967.868 11580.7 967.1550000000001 11580 966.272 11580ZM952.941 11564.2L948.777 11564.2L952.714 11557.7L954.7520000000001 11561ZM972.654 11573.7L947.129 11573.7C946.251 11573.7 945.5360000000001 11574.400000000001 945.5360000000001 11575.2C945.5360000000001 11576.1 946.2510000000001 11576.800000000001 947.129 11576.800000000001L972.654 11576.800000000001C973.535 11576.800000000001 974.25 11576.1 974.25 11575.2C974.25 11574.400000000001 973.535 11573.7 972.654 11573.7Z " fill="#000000" transform="matrix(1,0,0,1,-924,-11523)"></path></svg>