<svg id="SvgjsSvg1008" xmlns="http://www.w3.org/2000/svg" version="1.1" xmlns:xlink="http://www.w3.org/1999/xlink" xmlns:svgjs="http://svgjs.com/svgjs" width="32" height="32"><defs id="SvgjsDefs1009"></defs><path id="SvgjsPath1010" d="M1081 188C1072.18 188 1065 195.178 1065 204C1065 212.822 1072.18 220 1081 220C1089.82 220 1097 212.822 1097 204C1097 195.178 1089.82 188 1081 188ZM1081 217.257C1073.69 217.257 1067.74 211.31 1067.74 204C1067.74 196.69 1073.69 190.743 1081 190.743C1088.31 190.743 1094.26 196.69 1094.26 204C1094.26 211.31 1088.31 217.257 1081 217.257ZM1087.19 197.81C1086.66 197.274 1085.79 197.274 1085.25 197.81L1081 202.062L1076.75 197.81C1076.21 197.274 1075.34 197.274 1074.81 197.81C1074.27 198.345 1074.27 199.213 1074.81 199.749L1079.06 204.001L1074.81 208.25300000000001C1074.27 208.78900000000002 1074.27 209.657 1074.81 210.193C1075.08 210.46 1075.4299999999998 210.59400000000002 1075.78 210.59400000000002C1076.1299999999999 210.59400000000002 1076.48 210.461 1076.75 210.193L1081 205.94L1085.25 210.19299999999998C1085.52 210.45999999999998 1085.87 210.594 1086.22 210.594C1086.57 210.594 1086.92 210.46099999999998 1087.19 210.19299999999998C1087.73 209.65699999999998 1087.73 208.789 1087.19 208.253L1082.94 204.00099999999998L1087.19 199.74899999999997C1087.73 199.21299999999997 1087.73 198.34499999999997 1087.19 197.80999999999997Z " fill="#00ffad" transform="matrix(1,0,0,1,-1065,-188)"></path></svg>