<svg id="SvgjsSvg1017" xmlns="http://www.w3.org/2000/svg" version="1.1" xmlns:xlink="http://www.w3.org/1999/xlink" xmlns:svgjs="http://svgjs.com/svgjs" width="60" height="65"><defs id="SvgjsDefs1018"></defs><path id="SvgjsPath1019" d="M768.961 467.238C768.947 466.845 768.756 466.482 768.442 466.252C768.127 466.02 767.725 465.947 767.35 466.053C764.813 466.768 762.181 467.129 759.525 467.129C752.163 467.129 745.148 464.346 739.771 459.293C739.2829999999999 458.835 738.525 458.835 738.0369999999999 459.293C732.66 464.346 725.6439999999999 467.129 718.2819999999999 467.129C715.819 467.129 713.371 466.817 711.007 466.201C710.6339999999999 466.10400000000004 710.237 466.18300000000005 709.928 466.415C709.62 466.64700000000005 709.433 467.00800000000004 709.421 467.396C709.398 468.084 709.3870000000001 468.77500000000003 709.3870000000001 469.454C709.3870000000001 480.27 712.153 490.947 717.384 500.326C722.4540000000001 509.416 729.76 517.187 738.511 522.797C738.7189999999999 522.931 738.956 522.998 739.194 522.998C739.4309999999999 522.998 739.668 522.931 739.876 522.797C748.627 517.187 755.933 509.41600000000005 761.0029999999999 500.326C766.2349999999999 490.947 768.9999999999999 480.27000000000004 768.9999999999999 469.454C768.9989999999999 468.733 768.9859999999999 467.988 768.9609999999999 467.238ZM739.193 520.203C722.103 508.926 711.9259999999999 490.017 711.9259999999999 469.45399999999995C711.9259999999999 469.31499999999994 711.9259999999999 469.174 711.9269999999999 469.03499999999997C714.0099999999999 469.46399999999994 716.141 469.681 718.2819999999999 469.681C725.9 469.681 733.1779999999999 466.942 738.9039999999999 461.943C744.6299999999999 466.942 751.9069999999999 469.681 759.5249999999999 469.681C761.8659999999999 469.681 764.1909999999999 469.42199999999997 766.4579999999999 468.90799999999996C766.4599999999998 469.092 766.4609999999999 469.27299999999997 766.4609999999999 469.45399999999995C766.4609999999999 490.01699999999994 756.2839999999999 508.92599999999993 739.1929999999999 520.203ZM730.116 471.668C729.895 470.999 729.177 470.63800000000003 728.512 470.86C725.2919999999999 471.935 721.924 472.425 718.5 472.321C717.803 472.29900000000004 717.213 472.85200000000003 717.192 473.55600000000004C717.17 474.261 717.721 474.84900000000005 718.422 474.87100000000004C718.7520000000001 474.88100000000003 719.083 474.88500000000005 719.412 474.88500000000005C722.794 474.88500000000005 726.12 474.34700000000004 729.312 473.28100000000006C729.9780000000001 473.0590000000001 730.338 472.33600000000007 730.116 471.66800000000006ZM733.805 471.211C734.01 471.211 734.218 471.161 734.41 471.05600000000004C735.476 470.473 736.52 469.82000000000005 737.5129999999999 469.11600000000004C738.0859999999999 468.71000000000004 738.223 467.91400000000004 737.819 467.33700000000005C737.414 466.76200000000006 736.6229999999999 466.624 736.05 467.03100000000006C735.136 467.67800000000005 734.1759999999999 468.2780000000001 733.1959999999999 468.8140000000001C732.5809999999999 469.15100000000007 732.353 469.92500000000007 732.6879999999999 470.5450000000001C732.9189999999999 470.9700000000001 733.3549999999999 471.21100000000007 733.8049999999998 471.21100000000007ZM753.021 479.738L736.083 496.761L727.524 488.15700000000004C727.028 487.66 726.225 487.66 725.729 488.15700000000004C725.2330000000001 488.65600000000006 725.2330000000001 489.46400000000006 725.729 489.96200000000005L735.186 499.4680000000001C735.4340000000001 499.7170000000001 735.758 499.8420000000001 736.0830000000001 499.8420000000001C736.4080000000001 499.8420000000001 736.7330000000001 499.7170000000001 736.9810000000001 499.4680000000001L754.8160000000001 481.54100000000005C755.3110000000001 481.04400000000004 755.3110000000001 480.23600000000005 754.8160000000001 479.73800000000006C754.3200000000002 479.23900000000003 753.5160000000002 479.23900000000003 753.0210000000002 479.73800000000006Z " fill="#00ffad" transform="matrix(1,0,0,1,-709,-458)"></path></svg>