<svg id="SvgjsSvg1011" xmlns="http://www.w3.org/2000/svg" version="1.1" xmlns:xlink="http://www.w3.org/1999/xlink" xmlns:svgjs="http://svgjs.com/svgjs" width="63" height="60"><defs id="SvgjsDefs1012"></defs><path id="SvgjsPath1013" d="M398.374 500.236C395.247 497.234 390.644 496.192 386.47400000000005 497.489L377.57400000000007 488.947L388.1140000000001 478.832L394.8190000000001 475.234C395.00500000000005 475.133 395.15600000000006 474.983 395.25200000000007 474.799L398.26400000000007 469.017C398.46900000000005 468.623 398.38900000000007 468.149 398.06500000000005 467.837L394.29900000000004 464.223C393.975 463.913 393.47900000000004 463.834 393.069 464.03200000000004L387.04400000000004 466.92300000000006C386.85300000000007 467.01400000000007 386.69500000000005 467.15900000000005 386.59100000000007 467.33700000000005L382.84200000000004 473.77200000000005L372.30100000000004 483.88800000000003L363.83700000000005 475.764C365.189 471.762 364.10200000000003 467.345 360.975 464.344C357.68 461.183 352.74800000000005 460.195 348.40900000000005 461.826C348.07500000000005 461.952 347.82900000000006 462.23 347.75500000000005 462.56800000000004C347.6820000000001 462.90600000000006 347.79100000000005 463.25700000000006 348.0450000000001 463.50000000000006L354.82000000000005 470.00300000000004L350.30100000000004 474.33900000000006L343.52600000000007 467.83700000000005C343.2710000000001 467.593 342.90700000000004 467.48900000000003 342.55500000000006 467.55800000000005C342.2030000000001 467.63000000000005 341.9120000000001 467.86600000000004 341.78100000000006 468.18700000000007C340.0810000000001 472.35100000000006 341.11000000000007 477.0830000000001 344.4050000000001 480.2460000000001C347.5320000000001 483.2460000000001 352.1350000000001 484.2890000000001 356.30500000000006 482.9920000000001L364.77000000000004 491.11500000000007L363.54800000000006 492.2870000000001L360.53600000000006 489.3960000000001C360.27500000000003 489.1450000000001 359.89700000000005 489.04300000000006 359.53800000000007 489.1240000000001C359.1790000000001 489.2050000000001 358.88900000000007 489.45900000000006 358.77200000000005 489.7960000000001L357.39000000000004 493.7750000000001L346.47800000000007 500.09800000000007C346.38200000000006 500.15400000000005 346.29600000000005 500.22400000000005 346.22300000000007 500.3060000000001L340.61000000000007 506.5470000000001C338.33700000000005 509.0750000000001 338.49000000000007 513.0520000000001 340.95000000000005 515.412L344.72400000000005 519.034C346.01400000000007 520.272 347.76800000000003 520.898 349.52400000000006 520.898C351.11800000000005 520.898 352.71400000000006 520.3820000000001 353.9680000000001 519.34L360.6000000000001 513.823C360.68500000000006 513.751 360.7580000000001 513.668 360.81500000000005 513.577L367.27200000000005 503.256L371.41700000000003 501.92999999999995C371.76700000000005 501.8179999999999 372.03200000000004 501.53999999999996 372.117 501.19499999999994C372.201 500.85099999999994 372.094 500.48799999999994 371.833 500.23799999999994L368.821 497.3469999999999L370.04200000000003 496.17599999999993L378.942 504.7149999999999C377.59000000000003 508.7179999999999 378.677 513.1349999999999 381.80400000000003 516.136C384.04400000000004 518.286 387.04100000000005 519.432 390.09400000000005 519.432C391.53100000000006 519.431 392.98100000000005 519.177 394.37000000000006 518.654C394.70400000000006 518.528 394.95000000000005 518.249 395.02400000000006 517.912C395.09700000000004 517.575 394.98800000000006 517.2230000000001 394.73400000000004 516.98L387.958 510.47700000000003L392.478 506.141L399.253 512.642C399.507 512.8870000000001 399.873 512.9910000000001 400.224 512.921C400.57599999999996 512.851 400.86699999999996 512.615 400.998 512.292C402.699 508.13000000000005 401.668 503.39700000000005 398.37399999999997 500.23600000000005ZM367.315 495.901L365.055 493.733L384.45300000000003 475.117C384.523 475.05 384.58200000000005 474.976 384.63000000000005 474.894L388.2900000000001 468.61L393.3350000000001 466.19L396.0150000000001 468.762L393.4930000000001 473.603L386.9460000000001 477.116C386.86000000000007 477.162 386.7820000000001 477.219 386.7130000000001 477.28499999999997ZM369.109 500.513L366.22499999999997 501.436C365.98299999999995 501.513 365.77899999999994 501.671 365.64799999999997 501.87899999999996L359.07599999999996 512.384L352.57199999999995 517.794C350.7629999999999 519.3009999999999 347.91799999999995 519.207 346.22999999999996 517.587L342.45599999999996 513.967C340.768 512.345 340.66299999999995 509.618 342.222 507.883L347.724 501.764L358.827 495.33C359.044 495.20599999999996 359.207 495.00899999999996 359.287 494.77799999999996L360.24899999999997 492.01099999999997L362.796 494.45399999999995L366.561 498.06899999999996ZM357.335 481.089C357.036 480.803 356.58799999999997 480.713 356.19399999999996 480.86C352.643 482.196 348.60699999999997 481.386 345.912 478.8C343.62199999999996 476.603 342.669 473.47700000000003 343.286 470.498L349.548 476.507C349.964 476.907 350.639 476.907 351.055 476.507L357.08 470.725C357.496 470.326 357.496 469.67900000000003 357.08 469.28000000000003L350.818 463.27000000000004C353.92199999999997 462.67800000000005 357.179 463.59400000000005 359.469 465.79C362.164 468.377 363.007 472.25 361.616 475.65700000000004C361.461 476.035 361.555 476.46600000000007 361.854 476.75300000000004L370.79499999999996 485.333L366.277 489.67ZM399.493 509.983L393.231 503.972C392.815 503.57399999999996 392.141 503.57399999999996 391.725 503.972L385.70000000000005 509.755C385.50000000000006 509.94599999999997 385.38800000000003 510.207 385.38800000000003 510.477C385.38800000000003 510.74899999999997 385.50000000000006 511.008 385.699 511.20099999999996L391.961 517.2099999999999C388.857 517.8009999999999 385.6 516.887 383.31100000000004 514.6899999999999C380.615 512.1039999999999 379.77200000000005 508.2289999999999 381.163 504.8229999999999C381.318 504.4439999999999 381.224 504.01499999999993 380.925 503.7279999999999L371.548 494.72899999999987L376.067 490.39299999999986L385.444 499.39099999999985C385.743 499.6779999999998 386.192 499.7669999999998 386.58500000000004 499.61899999999986C390.136 498.28599999999983 394.172 499.09299999999985 396.867 501.67999999999984C399.15700000000004 503.8779999999998 400.11 507.0029999999998 399.493 509.98299999999983Z " fill="#00ffad" transform="matrix(1,0,0,1,-339,-461)"></path></svg>