<svg id="SvgjsSvg1008" xmlns="http://www.w3.org/2000/svg" version="1.1" xmlns:xlink="http://www.w3.org/1999/xlink" xmlns:svgjs="http://svgjs.com/svgjs" width="24" height="27"><defs id="SvgjsDefs1009"></defs><path id="SvgjsPath1010" d="M1389.5 65.9795L1389.49 65.976C1388.72 65.2718 1388.04 64.784 1387.42 64.4933C1388.8000000000002 63.1238 1389.6000000000001 61.2471 1389.6000000000001 59.2997C1389.6000000000001 55.2423 1386.2500000000002 51.943 1382.13 51.943C1380.5200000000002 51.943 1378.95 52.465199999999996 1377.66 53.404399999999995C1377.5 52.700199999999995 1377.0900000000001 51.8961 1376.41 50.9295C1375.51 49.629799999999996 1374.5600000000002 48.998 1373.52 48.998C1372.28 48.998 1371.29 49.8887 1370.4 50.6742C1370.25 50.811099999999996 1370.1000000000001 50.9419 1369.96 51.062C1369.43 51.5056 1369.1000000000001 52.252199999999995 1369.02 53.2224C1368.9 54.6591 1369.31 56.5588 1370.19 58.5742C1371.17 60.8424 1372.71 63.212999999999994 1374.64 65.4273C1379.0400000000002 70.5414 1383.75 72.8326 1386.46 72.8326C1387.25 72.8326 1387.88 72.6444 1388.33 72.275L1388.33 72.2706C1388.48 72.1416 1388.6399999999999 72.0117 1388.81 71.8756C1389.81 71.0672 1390.95 70.15090000000001 1391 68.8079C1391.03 67.8863 1390.54 66.9612 1389.5 65.9795ZM1388.12 71.0371C1387.9399999999998 71.1785 1387.78 71.31099999999999 1387.62 71.44709999999999C1387.3799999999999 71.6441 1386.9799999999998 71.74929999999999 1386.4599999999998 71.74929999999999C1384.0799999999997 71.74929999999999 1379.6299999999999 69.55089999999998 1375.4799999999998 64.72479999999999C1373.62 62.59099999999999 1372.1399999999999 60.31579999999999 1371.1999999999998 58.14749999999999C1370.3999999999999 56.29369999999999 1370.0099999999998 54.57519999999999 1370.12 53.310799999999986C1370.1699999999998 52.64449999999999 1370.37 52.139099999999985 1370.6699999999998 51.889999999999986L1370.6799999999998 51.885499999999986C1370.83 51.75569999999998 1370.9799999999998 51.619599999999984 1371.1399999999999 51.476399999999984C1371.3899999999999 51.25289999999998 1371.6599999999999 51.01869999999998 1371.9299999999998 50.80849999999998C1372.2199999999998 51.12829999999998 1372.6899999999998 51.66109999999998 1373.1799999999998 52.34319999999998C1373.2899999999997 52.49169999999998 1373.4599999999998 52.56939999999998 1373.6299999999999 52.56939999999998C1373.7399999999998 52.56939999999998 1373.85 52.53669999999998 1373.9499999999998 52.46689999999998C1374.1999999999998 52.29289999999998 1374.2499999999998 51.95529999999998 1374.08 51.71149999999998C1373.62 51.07969999999998 1373.1899999999998 50.57169999999998 1372.87 50.22259999999998C1373.09 50.13429999999998 1373.3 50.08219999999998 1373.52 50.08219999999998C1374.16 50.08219999999998 1374.83 50.57339999999998 1375.51 51.54269999999998C1376.41 52.83099999999998 1376.77 53.771999999999984 1376.61 54.42229999999998C1376.4799999999998 54.99659999999998 1375.9299999999998 55.43659999999998 1375.24 55.99329999999998C1375.17 56.05069999999998 1375.1 56.109899999999975 1375.02 56.170899999999975L1375.01 56.179699999999976C1374.3 56.784999999999975 1374.35 57.818799999999975 1375.15 59.25189999999998C1375.67 60.19299999999998 1376.5300000000002 61.343399999999974 1377.76 62.77119999999998C1380.18 65.55449999999998 1381.86 66.85159999999998 1383.05 66.85159999999998C1383.4099999999999 66.85159999999998 1383.74 66.73229999999998 1384 66.50879999999998C1384.01 66.50519999999997 1384.01 66.50079999999998 1384.02 66.49639999999998C1384.3 66.66869999999999 1384.72 66.93469999999998 1385.16 67.23599999999998C1385.52 67.48689999999998 1385.8400000000001 67.72099999999998 1386.0900000000001 67.93309999999998C1386.19 68.01879999999998 1386.3200000000002 68.06029999999998 1386.45 68.06029999999998C1386.6000000000001 68.06029999999998 1386.76 67.99499999999999 1386.8700000000001 67.86769999999999C1387.0600000000002 67.63889999999998 1387.0300000000002 67.29689999999998 1386.8000000000002 67.10429999999998C1386.5200000000002 66.87279999999998 1386.1800000000003 66.61829999999998 1385.7900000000002 66.34879999999998C1385.4700000000003 66.12619999999998 1385.16 65.92379999999999 1384.9 65.76039999999998C1385.3000000000002 65.45469999999997 1385.67 65.25059999999998 1386.0900000000001 65.25059999999998C1386.7600000000002 65.25059999999998 1387.6200000000001 65.74619999999997 1388.7400000000002 66.76589999999997C1389.5300000000002 67.50989999999997 1389.9200000000003 68.18319999999997 1389.9000000000003 68.76719999999997C1389.8700000000003 69.62249999999997 1388.9800000000002 70.34259999999998 1388.1200000000003 71.03709999999998ZM1377.63 54.8597C1378.8200000000002 53.692499999999995 1380.45 53.026199999999996 1382.13 53.026199999999996C1385.64 53.026199999999996 1388.5 55.840399999999995 1388.5 59.299699999999994C1388.5 61.179899999999996 1387.62 62.985099999999996 1386.15 64.1691C1386.13 64.1682 1386.1100000000001 64.1682 1386.0900000000001 64.1682C1385.0700000000002 64.1682 1384.3500000000001 64.7717 1383.5900000000001 65.4237C1383.5900000000001 65.4255 1383.5900000000001 65.4264 1383.5900000000001 65.42819999999999C1383.5700000000002 65.44229999999999 1383.5600000000002 65.45639999999999 1383.5400000000002 65.47059999999999C1383.4600000000003 65.54209999999999 1383.3700000000001 65.6155 1383.2800000000002 65.69059999999999C1383.2400000000002 65.72949999999999 1383.1800000000003 65.76829999999998 1383.0500000000002 65.76829999999998C1382.5900000000001 65.76829999999998 1381.39 65.28679999999999 1378.5900000000001 62.06789999999998C1377.41 60.69839999999998 1376.6000000000001 59.60799999999998 1376.1100000000001 58.73059999999998C1375.63 57.862099999999984 1375.4900000000002 57.21709999999998 1375.73 57.00149999999998C1375.8 56.94309999999998 1375.8700000000001 56.88659999999998 1375.94 56.83179999999998C1376.67 56.24339999999998 1377.3600000000001 55.68579999999998 1377.63 54.85969999999998ZM1385.5 73.9149L1374.5 73.9149C1374.2 73.9149 1373.95 74.1579 1373.95 74.4575C1373.95 74.7552 1374.2 74.9982 1374.5 74.9982L1385.5 74.9982C1385.8 74.9982 1386.05 74.7552 1386.05 74.4575C1386.05 74.1579 1385.8 73.9149 1385.5 73.9149ZM1388.13 68.2265C1387.91 68.0144 1387.5700000000002 68.0109 1387.3500000000001 68.21940000000001C1387.13 68.4261 1387.13 68.769 1387.3400000000001 68.9846C1387.3400000000001 68.9863 1387.4 69.05 1387.64 69.3124C1387.75 69.43249999999999 1387.9 69.4917 1388.0500000000002 69.4917C1388.1800000000003 69.4917 1388.3100000000002 69.44669999999999 1388.42 69.3539C1388.64 69.1533 1388.66 68.8123 1388.46 68.58959999999999C1388.21 68.3077 1388.14 68.23879999999998 1388.13 68.22649999999999ZM1375.01 54.4568C1375.1 54.4568 1375.19 54.4347 1375.27 54.387C1375.54 54.2412 1375.6299999999999 53.9116 1375.48 53.65C1375.4 53.4981 1375.31 53.3647 1375.21 53.2286C1375.04 52.9829 1374.7 52.9255 1374.45 53.0978C1374.2 53.2701 1374.14 53.6085 1374.32 53.8524C1374.3899999999999 53.9575 1374.46 54.060900000000004 1374.53 54.1811C1374.6299999999999 54.3569 1374.81 54.4568 1375.01 54.4568ZM1384 58.4991C1384 58.7757 1384.22 58.9992 1384.5 58.9992C1384.78 58.9992 1385 58.7757 1385 58.4991C1385 58.2235 1384.78 57.9999 1384.5 57.9999C1384.22 57.9999 1384 58.223499999999994 1384 58.4991ZM1382 58.4991C1382 58.7757 1382.22 58.9992 1382.5 58.9992C1382.78 58.9992 1383 58.7757 1383 58.4991C1383 58.2235 1382.78 57.9999 1382.5 57.9999C1382.22 57.9999 1382 58.223499999999994 1382 58.4991ZM1380 58.4991C1380 58.7757 1380.22 58.9992 1380.5 58.9992C1380.78 58.9992 1381 58.7757 1381 58.4991C1381 58.2235 1380.78 57.9999 1380.5 57.9999C1380.22 57.9999 1380 58.223499999999994 1380 58.4991Z " fill="#82e6fd" transform="matrix(1,0,0,1,-1368,-48)"></path></svg>