<svg id="SvgjsSvg1062" xmlns="http://www.w3.org/2000/svg" version="1.1" xmlns:xlink="http://www.w3.org/1999/xlink" xmlns:svgjs="http://svgjs.com/svgjs" width="86" height="85"><defs id="SvgjsDefs1063"></defs><path id="SvgjsPath1064" d="M478.477 11591.7C495.671 11591.7 509.65999999999997 11577.7 509.65999999999997 11560.5C509.65999999999997 11543.3 495.671 11529.3 478.477 11529.3C461.28299999999996 11529.3 447.29499999999996 11543.3 447.29499999999996 11560.5C447.29499999999996 11577.7 461.28399999999993 11591.7 478.477 11591.7ZM478.477 11532.2C494.10799999999995 11532.2 506.825 11544.900000000001 506.825 11560.5C506.825 11576.1 494.108 11588.8 478.477 11588.8C462.846 11588.8 450.12899999999996 11576.099999999999 450.12899999999996 11560.5C450.12899999999996 11544.9 462.84799999999996 11532.2 478.477 11532.2ZM450.248 11532.2L461.46999999999997 11532.2C462.25199999999995 11532.2 462.88699999999994 11531.5 462.88699999999994 11530.800000000001C462.88699999999994 11530.000000000002 462.25199999999995 11529.300000000001 461.46999999999997 11529.300000000001L453.955 11529.300000000001C460.93399999999997 11523.800000000001 469.51099999999997 11520.800000000001 478.479 11520.800000000001C500.361 11520.800000000001 518.165 11538.6 518.165 11560.500000000002C518.165 11561.300000000001 518.8 11561.900000000001 519.583 11561.900000000001C520.365 11561.900000000001 521 11561.300000000001 521 11560.500000000002C521 11537.100000000002 501.925 11518.000000000002 478.479 11518.000000000002C468.584 11518.000000000002 459.14099999999996 11521.400000000001 451.548 11527.600000000002L451.548 11519.400000000001C451.548 11518.600000000002 450.913 11518.000000000002 450.13100000000003 11518.000000000002C449.348 11518.000000000002 448.713 11518.600000000002 448.713 11519.400000000001L448.713 11532.2C448.80400000000003 11532.2 450.156 11532.2 450.24800000000005 11532.2ZM462.886 11576.1C463.249 11576.1 463.612 11576 463.88800000000003 11575.7L475.615 11564C476.459 11564.5 477.43 11564.8 478.47700000000003 11564.8C481.60400000000004 11564.8 484.14700000000005 11562.199999999999 484.14700000000005 11559.099999999999C484.14700000000005 11556.499999999998 482.33200000000005 11554.3 479.89400000000006 11553.599999999999L479.89400000000006 11546.3C479.89400000000006 11545.599999999999 479.25900000000007 11544.9 478.4770000000001 11544.9C477.6950000000001 11544.9 477.0600000000001 11545.6 477.0600000000001 11546.3L477.0600000000001 11553.599999999999C474.6220000000001 11554.3 472.8080000000001 11556.499999999998 472.8080000000001 11559.099999999999C472.8080000000001 11560.099999999999 473.1120000000001 11561.099999999999 473.6110000000001 11561.999999999998L461.8840000000001 11573.699999999999C461.33000000000015 11574.199999999999 461.33000000000015 11575.099999999999 461.8840000000001 11575.699999999999C462.16200000000015 11575.999999999998 462.5240000000001 11576.099999999999 462.88600000000014 11576.099999999999ZM478.477 11556.3C480.041 11556.3 481.31199999999995 11557.5 481.31199999999995 11559.099999999999C481.31199999999995 11560.699999999999 480.04099999999994 11561.899999999998 478.477 11561.899999999998C476.914 11561.899999999998 475.642 11560.699999999997 475.642 11559.099999999999C475.642 11557.499999999998 476.914 11556.3 478.477 11556.3ZM478.477 11539.3C479.25899999999996 11539.3 479.89399999999995 11538.599999999999 479.89399999999995 11537.8L479.89399999999995 11535C479.89399999999995 11534.2 479.25899999999996 11533.6 478.477 11533.6C477.695 11533.6 477.06 11534.2 477.06 11535L477.06 11537.8C477.06 11538.599999999999 477.695 11539.3 478.477 11539.3ZM455.799 11559.1L452.964 11559.1C452.182 11559.1 451.547 11559.7 451.547 11560.5C451.547 11561.3 452.182 11561.9 452.964 11561.9L455.799 11561.9C456.58099999999996 11561.9 457.21599999999995 11561.3 457.21599999999995 11560.5C457.21599999999995 11559.7 456.58299999999997 11559.1 455.799 11559.1ZM501.155 11561.9L503.98999999999995 11561.9C504.77199999999993 11561.9 505.4069999999999 11561.3 505.4069999999999 11560.5C505.4069999999999 11559.7 504.77199999999993 11559.1 503.98999999999995 11559.1L501.155 11559.1C500.373 11559.1 499.738 11559.7 499.738 11560.5C499.738 11561.3 500.373 11561.9 501.155 11561.9ZM478.477 11581.8C477.695 11581.8 477.06 11582.4 477.06 11583.199999999999L477.06 11585.999999999998C477.06 11586.799999999997 477.695 11587.399999999998 478.477 11587.399999999998C479.25899999999996 11587.399999999998 479.89399999999995 11586.799999999997 479.89399999999995 11585.999999999998L479.89399999999995 11583.199999999999C479.89399999999995 11582.4 479.26099999999997 11581.8 478.477 11581.8ZM519.51 11563.3C518.731 11563.3 518.036 11563.8 517.951 11564.599999999999C517.866 11565.399999999998 518.433 11566.099999999999 519.213 11566.199999999999C519.269 11566.199999999999 519.312 11566.199999999999 519.3689999999999 11566.199999999999C520.0769999999999 11566.199999999999 520.7009999999999 11565.599999999999 520.7719999999999 11564.9C520.857 11564.1 520.29 11563.4 519.51 11563.3ZM463.226 11597.1C462.503 11596.800000000001 461.681 11597.2 461.383 11597.9C461.072 11598.6 461.412 11599.4 462.135 11599.8C462.319 11599.8 462.503 11599.9 462.687 11599.9C463.24 11599.9 463.765 11599.5 463.991 11599C464.289 11598.3 463.949 11597.4 463.226 11597.1ZM475.146 11600C474.367 11600 473.672 11600.5 473.615 11601.3C473.545 11602.099999999999 474.12600000000003 11602.8 474.90500000000003 11602.9C474.94800000000004 11602.9 474.99 11602.9 475.019 11602.9C475.75600000000003 11602.9 476.379 11602.3 476.436 11601.6C476.493 11600.800000000001 475.926 11600.1 475.14599999999996 11600ZM441.172 11574.1C440.91600000000005 11573.300000000001 440.09400000000005 11572.9 439.357 11573.2C438.62 11573.5 438.252 11574.300000000001 438.521 11575C438.72 11575.6 439.272 11576 439.839 11576C440.009 11576 440.165 11575.9 440.335 11575.9C441.072 11575.6 441.441 11574.8 441.17199999999997 11574.1ZM442.787 11577.8C442.433 11577.099999999999 441.597 11576.8 440.888 11577.199999999999C440.179 11577.499999999998 439.89599999999996 11578.4 440.236 11579.099999999999C440.477 11579.599999999999 440.98699999999997 11579.899999999998 441.512 11579.899999999998C441.71 11579.899999999998 441.923 11579.799999999997 442.121 11579.699999999997C442.83 11579.399999999998 443.12899999999996 11578.499999999996 442.787 11577.799999999997ZM502.161 11592.3C501.538 11592.8 501.41 11593.699999999999 501.878 11594.3C502.147 11594.699999999999 502.573 11594.9 503.012 11594.9C503.31 11594.9 503.607 11594.8 503.848 11594.6C504.486 11594.1 504.61400000000003 11593.2 504.146 11592.6C503.678 11592 502.785 11591.800000000001 502.161 11592.300000000001ZM505.322 11589.7C504.741 11590.2 504.699 11591.1 505.237 11591.7C505.521 11592 505.903 11592.2 506.286 11592.2C506.626 11592.2 506.967 11592 507.236 11591.800000000001C507.817 11591.300000000001 507.84499999999997 11590.400000000001 507.32099999999997 11589.800000000001C506.796 11589.2 505.88899999999995 11589.2 505.32199999999995 11589.7ZM467.096 11598.5C466.344 11598.3 465.551 11598.7 465.324 11599.5C465.111 11600.2 465.522 11601 466.273 11601.2C466.415 11601.300000000001 466.557 11601.300000000001 466.684 11601.300000000001C467.29400000000004 11601.300000000001 467.86100000000005 11600.900000000001 468.045 11600.300000000001C468.272 11599.500000000002 467.84700000000004 11598.7 467.096 11598.500000000002ZM471.078 11599.5C470.313 11599.3 469.56199999999995 11599.8 469.41999999999996 11600.6C469.27799999999996 11601.4 469.77399999999994 11602.1 470.554 11602.300000000001C470.63899999999995 11602.300000000001 470.724 11602.300000000001 470.80899999999997 11602.300000000001C471.47499999999997 11602.300000000001 472.07099999999997 11601.800000000001 472.212 11601.1C472.354 11600.4 471.844 11599.6 471.078 11599.5ZM447.791 11587.9C447.224 11588.4 447.21 11589.3 447.748 11589.9C448.018 11590.1 448.4 11590.3 448.769 11590.3C449.123 11590.3 449.47700000000003 11590.199999999999 449.747 11589.9C450.314 11589.4 450.34200000000004 11588.5 449.789 11587.9C449.251 11587.3 448.358 11587.3 447.791 11587.9ZM518.05 11571.7C517.313 11571.5 516.505 11571.900000000001 516.279 11572.6C516.038 11573.4 516.449 11574.2 517.186 11574.4C517.3280000000001 11574.4 517.4830000000001 11574.5 517.625 11574.5C518.221 11574.5 518.773 11574.1 518.972 11573.5C519.213 11572.7 518.802 11571.9 518.05 11571.7ZM487.378 11599.2C486.613 11599.300000000001 486.131 11600.1 486.315 11600.900000000001C486.457 11601.500000000002 487.052 11602.000000000002 487.69 11602.000000000002C487.803 11602.000000000002 487.903 11602.000000000002 488.016 11601.900000000001C488.767 11601.800000000001 489.249 11601.000000000002 489.079 11600.2C488.895 11599.5 488.144 11599 487.378 11599.2ZM438.946 11571.9C439.69800000000004 11571.699999999999 440.165 11570.9 439.98100000000005 11570.1C439.7830000000001 11569.4 439.01700000000005 11568.9 438.25200000000007 11569.1C437.5010000000001 11569.300000000001 437.0330000000001 11570.1 437.23100000000005 11570.800000000001C437.38700000000006 11571.500000000002 437.9680000000001 11571.900000000001 438.60600000000005 11571.900000000001C438.72 11571.900000000001 438.833 11571.900000000001 438.946 11571.900000000001ZM447.11 11584.8C446.628 11584.199999999999 445.75 11584.099999999999 445.12600000000003 11584.5C444.502 11585 444.389 11585.9 444.87100000000004 11586.5C445.15400000000005 11586.9 445.58000000000004 11587.1 445.99100000000004 11587.1C446.30300000000005 11587.1 446.6 11587 446.869 11586.800000000001C447.47900000000004 11586.300000000001 447.59200000000004 11585.400000000001 447.11 11584.800000000001ZM510.751 11583.6C510.29699999999997 11584.2 510.43899999999996 11585.1 511.077 11585.5C511.332 11585.7 511.615 11585.8 511.899 11585.8C512.353 11585.8 512.778 11585.599999999999 513.061 11585.199999999999C513.515 11584.599999999999 513.373 11583.699999999999 512.735 11583.199999999999C512.097 11582.8 511.204 11582.9 510.75100000000003 11583.599999999999ZM519 11567.6C518.235 11567.4 517.483 11567.9 517.328 11568.7C517.1569999999999 11569.400000000001 517.654 11570.2 518.419 11570.300000000001C518.518 11570.400000000001 518.617 11570.400000000001 518.717 11570.400000000001C519.369 11570.400000000001 519.9639999999999 11569.900000000001 520.091 11569.2C520.261 11568.5 519.765 11567.7 519 11567.6ZM454.07 11593.6C453.616 11594.2 453.786 11595.1 454.424 11595.5C454.679 11595.7 454.94899999999996 11595.8 455.23199999999997 11595.8C455.686 11595.8 456.12499999999994 11595.599999999999 456.39399999999995 11595.199999999999C456.84799999999996 11594.499999999998 456.67799999999994 11593.599999999999 456.03999999999996 11593.199999999999C455.388 11592.8 454.50899999999996 11592.9 454.06999999999994 11593.599999999999ZM450.781 11590.9C450.271 11591.5 450.342 11592.4 450.937 11592.9C451.207 11593.1 451.533 11593.199999999999 451.85900000000004 11593.199999999999C452.25600000000003 11593.199999999999 452.65200000000004 11592.999999999998 452.93600000000004 11592.699999999999C453.446 11592.099999999999 453.37500000000006 11591.199999999999 452.78000000000003 11590.699999999999C452.185 11590.199999999999 451.29200000000003 11590.3 450.781 11590.9ZM516.69 11575.7C515.9670000000001 11575.400000000001 515.1310000000001 11575.7 514.8190000000001 11576.400000000001C514.493 11577.2 514.8190000000001 11578.000000000002 515.542 11578.300000000001C515.726 11578.400000000001 515.924 11578.400000000001 516.109 11578.400000000001C516.6610000000001 11578.400000000001 517.172 11578.100000000002 517.413 11577.600000000002C517.724 11576.900000000001 517.398 11576.000000000002 516.69 11575.700000000003ZM508.2 11586.8C507.675 11587.4 507.73199999999997 11588.199999999999 508.313 11588.8C508.582 11589 508.92199999999997 11589.099999999999 509.248 11589.099999999999C509.645 11589.099999999999 510.02799999999996 11588.999999999998 510.312 11588.599999999999C510.836 11588.099999999999 510.779 11587.199999999999 510.19800000000004 11586.599999999999C509.603 11586.099999999999 508.71000000000004 11586.199999999999 508.20000000000005 11586.8ZM495.131 11596.5C494.40799999999996 11596.8 494.111 11597.7 494.43699999999995 11598.4C494.67799999999994 11598.9 495.18799999999993 11599.199999999999 495.727 11599.199999999999C495.92499999999995 11599.199999999999 496.123 11599.199999999999 496.322 11599.099999999999C497.031 11598.8 497.342 11597.899999999998 497.002 11597.199999999999C496.676 11596.499999999998 495.84000000000003 11596.199999999999 495.13100000000003 11596.499999999998ZM437.982 11567.7C438.762 11567.6 439.30100000000004 11566.900000000001 439.187 11566.1C439.074 11565.300000000001 438.351 11564.800000000001 437.586 11564.9C436.80600000000004 11565 436.267 11565.699999999999 436.38100000000003 11566.5C436.48 11567.2 437.09000000000003 11567.7 437.78400000000005 11567.7C437.8550000000001 11567.7 437.91200000000003 11567.7 437.982 11567.7ZM437.401 11563.5C437.416 11563.5 437.444 11563.5 437.458 11563.5C438.238 11563.5 438.84700000000004 11562.8 438.819 11562C438.79 11561.3 438.124 11560.6 437.345 11560.7C436.56500000000005 11560.7 435.956 11561.400000000001 435.98400000000004 11562.2C436.01200000000006 11562.900000000001 436.65000000000003 11563.5 437.401 11563.5ZM444.772 11581.4C444.361 11580.8 443.48199999999997 11580.6 442.816 11581C442.15 11581.4 441.95099999999996 11582.3 442.36199999999997 11582.9C442.631 11583.3 443.099 11583.6 443.56699999999995 11583.6C443.82199999999995 11583.6 444.07699999999994 11583.5 444.3179999999999 11583.4C444.9839999999999 11583 445.18299999999994 11582.1 444.77199999999993 11581.4ZM479.243 11600.2C478.463 11600.2 477.839 11600.800000000001 477.853 11601.6C477.868 11602.4 478.505 11603 479.271 11603C479.285 11603 479.285 11603 479.29900000000004 11603C480.079 11603 480.70200000000006 11602.3 480.68800000000005 11601.6C480.67400000000004 11600.800000000001 480.02200000000005 11600.1 479.24300000000005 11600.2ZM483.339 11599.9C482.559 11600 482.006 11600.699999999999 482.106 11601.5C482.191 11602.2 482.8 11602.7 483.509 11602.7C483.56600000000003 11602.7 483.622 11602.7 483.67900000000003 11602.7C484.458 11602.6 485.011 11601.900000000001 484.91200000000003 11601.1C484.82700000000006 11600.300000000001 484.11800000000005 11599.800000000001 483.33900000000006 11599.9ZM498.746 11594.6C498.079 11595 497.853 11595.9 498.26399999999995 11596.5C498.51899999999995 11597 499.001 11597.2 499.48299999999995 11597.2C499.72399999999993 11597.2 499.9789999999999 11597.2 500.20599999999996 11597C500.87199999999996 11596.6 501.09899999999993 11595.8 500.68699999999995 11595.1C500.29099999999994 11594.4 499.42599999999993 11594.2 498.746 11594.6ZM514.904 11579.6C514.223 11579.2 513.359 11579.4 512.962 11580.1L512.976 11580.1C512.579 11580.800000000001 512.82 11581.7 513.501 11582C513.713 11582.2 513.954 11582.2 514.1949999999999 11582.2C514.6909999999999 11582.2 515.1729999999999 11582 515.4279999999999 11581.5C515.8249999999999 11580.8 515.5839999999998 11580 514.9039999999999 11579.6ZM491.32 11598.1C490.58299999999997 11598.300000000001 490.186 11599.1 490.441 11599.9C490.64 11600.4 491.19199999999995 11600.8 491.774 11600.8C491.929 11600.8 492.085 11600.8 492.241 11600.699999999999C492.978 11600.499999999998 493.375 11599.699999999999 493.12 11598.9C492.86400000000003 11598.199999999999 492.056 11597.8 491.32 11598.1ZM459.527 11595.4C458.846 11595 457.98199999999997 11595.199999999999 457.599 11595.9C457.22999999999996 11596.6 457.486 11597.5 458.18 11597.8C458.39300000000003 11598 458.62 11598 458.846 11598C459.357 11598 459.838 11597.8 460.094 11597.3C460.476 11596.599999999999 460.221 11595.699999999999 459.527 11595.4Z " fill="#000000" transform="matrix(1,0,0,1,-435,-11518)"></path></svg>