<svg id="SvgjsSvg1041" xmlns="http://www.w3.org/2000/svg" version="1.1" xmlns:xlink="http://www.w3.org/1999/xlink" xmlns:svgjs="http://svgjs.com/svgjs" width="16" height="21"><defs id="SvgjsDefs1042"></defs><path id="SvgjsPath1043" d="M1109.87 2187.67L1100.58 2187.67C1099.71 2187.67 1099 2188.41 1099 2189.33L1099 2203.34C1099 2204.25 1099.71 2205 1100.58 2205L1109.87 2205C1110.7399999999998 2205 1111.4499999999998 2204.25 1111.4499999999998 2203.34L1111.4499999999998 2189.33C1111.4399999999998 2188.41 1110.7399999999998 2187.67 1109.87 2187.67ZM1110.34 2203.33C1110.34 2203.61 1110.1299999999999 2203.83 1109.86 2203.83L1100.58 2203.83C1100.31 2203.83 1100.1 2203.61 1100.1 2203.33L1100.1 2189.33C1100.1 2189.06 1100.31 2188.83 1100.58 2188.83L1109.86 2188.83C1110.1299999999999 2188.83 1110.34 2189.06 1110.34 2189.33ZM1113.42 2184L1104.13 2184C1103.2600000000002 2184 1102.5500000000002 2184.74 1102.5500000000002 2185.66C1102.5500000000002 2185.98 1102.8000000000002 2186.24 1103.1000000000001 2186.24C1103.41 2186.24 1103.66 2185.9799999999996 1103.66 2185.66C1103.66 2185.3799999999997 1103.8700000000001 2185.16 1104.13 2185.16L1113.42 2185.16C1113.68 2185.16 1113.9 2185.3799999999997 1113.9 2185.66L1113.9 2199.67C1113.9 2199.94 1113.68 2200.17 1113.42 2200.17C1113.1100000000001 2200.17 1112.8700000000001 2200.42 1112.8700000000001 2200.7400000000002C1112.8700000000001 2201.07 1113.1100000000001 2201.3300000000004 1113.42 2201.3300000000004C1114.29 2201.3300000000004 1115 2200.5800000000004 1115 2199.6700000000005L1115 2185.6600000000003C1115 2184.7400000000002 1114.29 2184.0000000000005 1113.42 2184.0000000000005Z " fill="#48c7ef" transform="matrix(1,0,0,1,-1099,-2184)"></path></svg>