<svg id="SvgjsSvg1044" xmlns="http://www.w3.org/2000/svg" version="1.1" xmlns:xlink="http://www.w3.org/1999/xlink" xmlns:svgjs="http://svgjs.com/svgjs" width="20" height="20"><defs id="SvgjsDefs1045"></defs><path id="SvgjsPath1046" d="M1116.57 2216.02C1116.29 2215.72 1115.95 2215.56 1115.54 2215.56L1111.2 2215.56L1111.2 2214.7C1111.2 2214.2999999999997 1110.91 2214 1110.53 2214C1110.1499999999999 2214 1109.86 2214.3 1109.86 2214.7L1109.86 2215.56L1104.1499999999999 2215.56L1104.1499999999999 2214.7C1104.1499999999999 2214.2999999999997 1103.85 2214 1103.4699999999998 2214C1103.0899999999997 2214 1102.7999999999997 2214.3 1102.7999999999997 2214.7L1102.7999999999997 2215.56L1098.4699999999998 2215.56C1098.0599999999997 2215.56 1097.7099999999998 2215.72 1097.4299999999998 2216.02C1097.1499999999999 2216.32 1096.9999999999998 2216.68 1096.9999999999998 2217.1L1096.9999999999998 2232.46C1096.9999999999998 2232.88 1097.1399999999999 2233.25 1097.4299999999998 2233.55C1097.6999999999998 2233.8500000000004 1098.06 2234 1098.4699999999998 2234L1115.5399999999997 2234C1115.9499999999998 2234 1116.2999999999997 2233.85 1116.5699999999997 2233.55C1116.8599999999997 2233.25 1116.9999999999998 2232.88 1116.9999999999998 2232.46L1116.9999999999998 2217.11C1116.9999999999998 2216.6800000000003 1116.8499999999997 2216.32 1116.5699999999997 2216.02ZM1115.66 2232.46C1115.66 2232.55 1115.63 2232.58 1115.5400000000002 2232.58L1098.4700000000003 2232.58C1098.4100000000003 2232.58 1098.3400000000001 2232.5099999999998 1098.3400000000001 2232.46L1098.3400000000001 2222.11L1115.66 2222.11ZM1115.66 2220.71L1098.3400000000001 2220.71L1098.3400000000001 2217.1C1098.3400000000001 2217.02 1098.39 2216.98 1098.4700000000003 2216.98L1102.8000000000002 2216.98L1102.8000000000002 2217.28C1102.8000000000002 2217.6800000000003 1103.0900000000001 2218 1103.4700000000003 2218C1103.8500000000004 2218 1104.1500000000003 2217.68 1104.1500000000003 2217.28L1104.1500000000003 2216.98L1109.8600000000004 2216.98L1109.8600000000004 2217.28C1109.8600000000004 2217.6800000000003 1110.1500000000003 2218 1110.5300000000004 2218C1110.9100000000005 2218 1111.2000000000005 2217.68 1111.2000000000005 2217.28L1111.2000000000005 2216.98L1115.5400000000004 2216.98C1115.6300000000003 2216.98 1115.6600000000003 2217.02 1115.6600000000003 2217.1ZM1107 2227L1107 2224L1104 2224L1104 2227ZM1103 2227L1103 2224L1100 2224L1100 2227ZM1103 2231L1103 2228L1100 2228L1100 2231Z " fill="#48c7ef" transform="matrix(1,0,0,1,-1097,-2214)"></path></svg>